<svg width="843" height="105" viewBox="0 0 843 105" fill="none" xmlns="http://www.w3.org/2000/svg">
<path d="M143 76.9434H147.771V42.7957L159.691 44.8297V50.0116H160.887C168.72 50.0116 172.716 46.5343 172.716 40.8411C172.716 35.1479 168.379 32.5116 162.333 32.5116C156.97 32.5116 152.37 34.9775 149.137 38.9661L143 31.4093C147.771 25.8866 155.684 23.1707 163.255 23.1707C174.914 23.1707 185.298 28.8638 185.298 40.1593C185.298 46.5343 181.973 51.2843 176.781 53.7502C184.865 56.2161 189.032 61.4775 189.032 68.3638C189.032 79.2388 181.973 86.7161 163.665 86.7161H144.708L143 76.9434ZM163.426 76.9434C172.705 76.9434 176.451 74.3979 176.451 67.9434C176.451 61.8298 172.364 58.8525 164.28 58.8525H159.68V76.9434H163.426Z" fill="url(#paint0_linear_8_827)"/>
<path d="M163.665 85.7161H145.548L144.19 77.9434H147.771H148.771V76.9434V43.9807L158.691 45.6736V50.0116V51.0116H159.691H160.887C164.933 51.0116 168.145 50.1157 170.363 48.3425C172.616 46.5425 173.716 43.9415 173.716 40.8411C173.716 37.7077 172.505 35.3156 170.389 33.7394C168.316 32.1952 165.481 31.5116 162.333 31.5116C157.072 31.5116 152.509 33.7536 149.16 37.4083L144.317 31.4443C148.895 26.6122 156.179 24.1707 163.255 24.1707C168.939 24.1707 174.233 25.5608 178.075 28.2486C181.884 30.9129 184.298 34.8652 184.298 40.1593C184.298 46.1332 181.209 50.5401 176.352 52.8469L174.021 53.9539L176.489 54.7067C180.39 55.8965 183.267 57.7365 185.167 60.0362C187.059 62.3271 188.032 65.1339 188.032 68.3638C188.032 73.5701 186.354 77.8384 182.591 80.8359C178.787 83.8658 172.707 85.7161 163.665 85.7161ZM159.68 57.8525H158.68V58.8525V76.9434V77.9434H159.68H163.426C168.107 77.9434 171.626 77.3115 173.985 75.6875C176.439 73.998 177.451 71.378 177.451 67.9434C177.451 64.6409 176.331 62.0381 173.993 60.3023C171.711 58.6086 168.415 57.8525 164.28 57.8525H159.68Z" stroke="#ED8991" stroke-opacity="0.2" stroke-width="2"/>
<path d="M195.761 67.1705V63.2614C195.761 50.091 201.886 42.7046 211.507 42.7046C218.065 42.7046 222.483 45.1705 225.125 49.6705L227.504 43.5569H235.076V75.2387C235.076 77.7841 236.1 78.3864 237.626 78.3864C238.389 78.3864 239.163 78.216 239.835 77.966V86.466C238.127 86.9773 235.064 87.5682 232.343 87.5682C227.664 87.5682 224.51 86.0341 223.326 81.4546C221.117 85.4432 217.28 87.5682 211.496 87.5682C201.875 87.5682 195.75 80.3523 195.75 67.1819L195.761 67.1705ZM215.082 78.8069C220.103 78.8069 222.825 75.2387 222.825 67.1705V63.2614C222.825 55.1932 220.103 51.4546 215.082 51.4546C210.915 51.4546 208.023 54.6819 208.023 63.1819V67.1705C208.023 75.6705 210.915 78.8069 215.082 78.8069Z" fill="url(#paint1_linear_8_827)"/>
<path d="M200.799 81.6929C198.305 78.5453 196.814 73.8343 196.752 67.5945L196.761 67.5852V67.1705V63.2614C196.761 56.8165 198.261 51.9216 200.814 48.6604C203.343 45.4294 206.978 43.7046 211.507 43.7046C217.771 43.7046 221.829 46.0314 224.262 50.1767L225.307 51.9575L226.056 50.0332L228.188 44.5569H234.076V75.2387C234.076 76.6086 234.345 77.7123 235.055 78.4571C235.782 79.2197 236.759 79.3864 237.626 79.3864C238.035 79.3864 238.442 79.3454 238.835 79.2744V85.7046C237.138 86.138 234.605 86.5682 232.343 86.5682C230.095 86.5682 228.352 86.1967 227.056 85.382C225.791 84.5871 224.835 83.297 224.294 81.2043L223.666 78.7759L222.451 80.9701C220.453 84.5778 216.994 86.5682 211.496 86.5682C206.959 86.5682 203.324 84.88 200.799 81.6929ZM215.082 79.8069C217.864 79.8069 220.135 78.7974 221.66 76.5812C223.137 74.4354 223.825 71.2844 223.825 67.1705V63.2614C223.825 59.1462 223.136 55.9585 221.666 53.7741C220.149 51.5196 217.881 50.4546 215.082 50.4546C212.698 50.4546 210.605 51.4019 209.158 53.5767C207.755 55.6843 207.023 58.8482 207.023 63.1819V67.1705C207.023 71.5034 207.755 74.6477 209.161 76.7349C210.613 78.8903 212.708 79.8069 215.082 79.8069Z" stroke="#ED8991" stroke-opacity="0.2" stroke-width="2"/>
<path d="M246.233 43.5569H255.592L257.13 50.3523C259.68 44.6591 264.359 42.7046 269.813 42.7046C278.409 42.7046 284.797 47.0341 284.797 61.3069V86.7046H272.546V61.3069C272.546 54.5114 269.995 52.0455 266.079 52.0455C261.399 52.0455 258.507 54.4205 258.507 63.091V86.7046H246.256V43.5569H246.233Z" fill="url(#paint2_linear_8_827)"/>
<path d="M283.797 61.3069V85.7046H273.546V61.3069C273.546 57.8143 272.896 55.2377 271.574 53.5183C270.211 51.7461 268.263 51.0455 266.079 51.0455C263.57 51.0455 261.319 51.6893 259.749 53.7019C258.233 55.6475 257.507 58.6883 257.507 63.091V85.7046H247.256V44.5569H254.793L256.154 50.5729L256.816 53.4985L258.042 50.7611C259.236 48.0964 260.9 46.3559 262.867 45.2686C264.847 44.1734 267.2 43.7046 269.813 43.7046C273.953 43.7046 277.383 44.745 279.797 47.3352C282.225 49.9412 283.797 54.2972 283.797 61.3069Z" stroke="#ED8991" stroke-opacity="0.2" stroke-width="2"/>
<path d="M297.218 100.386L300.201 91.4659C302.581 92.9999 305.314 93.6704 308.877 93.6704C313.728 93.6704 319.341 91.7159 319.341 82.1136V80.159C316.961 83.7272 313.295 85.6818 308.023 85.6818C298.402 85.6818 292.277 78.3749 292.277 65.2045V63.1704C292.277 49.9999 298.402 42.6931 308.023 42.6931C314.149 42.6931 318.749 45.3295 321.561 49.9999L324.031 43.5454H331.603V80.0681C331.603 96.3749 321.39 103 309.39 103C304.118 103 299.518 102.148 297.218 100.364V100.386ZM311.598 76.9431C316.198 76.9431 319.341 73.2954 319.341 65.2158V63.1818C319.341 55.1136 316.187 51.3749 311.598 51.3749C307.431 51.3749 304.539 54.6022 304.539 63.1022V65.2272C304.539 73.7272 307.431 76.9545 311.598 76.9545V76.9431Z" fill="url(#paint3_linear_8_827)"/>
<path d="M324.719 44.5454H330.603V80.0681C330.603 88.0035 328.126 93.4437 324.323 96.91C320.503 100.392 315.216 102 309.39 102C306.803 102 304.406 101.79 302.393 101.372C300.727 101.025 299.381 100.547 298.413 99.9678L300.761 92.9467C303.076 94.1532 305.695 94.6704 308.877 94.6704C311.411 94.6704 314.304 94.1639 316.571 92.2584C318.872 90.3248 320.341 87.1131 320.341 82.1136V80.159V76.8572L318.509 79.6042C316.338 82.8594 313.005 84.6818 308.023 84.6818C303.491 84.6818 299.855 82.974 297.328 79.7635C294.777 76.5231 293.277 71.6495 293.277 65.2045V63.1704C293.277 56.7254 294.777 51.8517 297.328 48.6114C299.855 45.4009 303.491 43.6931 308.023 43.6931C313.818 43.6931 318.083 46.1625 320.704 50.5158L321.762 52.2723L322.495 50.3574L324.719 44.5454ZM312.598 77.9545V77.8892C314.775 77.6491 316.653 76.6049 318.011 74.6871C319.538 72.5297 320.341 69.3624 320.341 65.2158V63.1818C320.341 59.0394 319.535 55.8552 318.009 53.6788C316.451 51.4553 314.202 50.3749 311.598 50.3749C309.214 50.3749 307.121 51.3222 305.674 53.4971C304.271 55.6047 303.539 58.7685 303.539 63.1022V65.2272C303.539 69.5609 304.271 72.7247 305.674 74.8323C307.121 77.0072 309.214 77.9545 311.598 77.9545H312.598Z" stroke="#ED8991" stroke-opacity="0.2" stroke-width="2"/>
<path d="M341.304 69.5455V43.5569H353.555V69.5455C353.555 76.341 356.105 78.3751 360.022 78.3751C364.28 78.3751 367.172 76.4205 367.172 67.7614V43.5569H379.423V75.2387C379.423 77.7842 380.447 78.3864 381.973 78.3864C382.736 78.3864 383.51 78.216 384.182 77.966V86.466C382.474 86.9773 379.411 87.5683 376.69 87.5683C371.92 87.5683 368.857 85.9546 367.673 81.3637C364.952 85.9546 360.693 87.5683 356.264 87.5683C347.668 87.5683 341.281 83.3183 341.281 69.5569L341.304 69.5455Z" fill="url(#paint4_linear_8_827)"/>
<path d="M346.27 83.0306C343.923 80.5849 342.378 76.56 342.285 70.1732L342.304 70.1641V69.5455V44.5569H352.555V69.5455C352.555 73.0329 353.202 75.5239 354.55 77.1473C355.935 78.8165 357.893 79.3751 360.022 79.3751C362.296 79.3751 364.449 78.8491 365.975 76.9396C367.447 75.0965 368.172 72.1556 368.172 67.7614V44.5569H378.423V75.2387C378.423 76.6087 378.692 77.7123 379.402 78.4571C380.129 79.2197 381.106 79.3864 381.973 79.3864C382.382 79.3864 382.789 79.3455 383.182 79.2744V85.7046C381.485 86.138 378.952 86.5683 376.69 86.5683C374.401 86.5683 372.663 86.1783 371.38 85.3481C370.125 84.536 369.185 83.2233 368.641 81.114L368.04 78.7831L366.812 80.8538C364.312 85.0719 360.429 86.5683 356.264 86.5683C352.119 86.5683 348.684 85.5447 346.27 83.0306Z" stroke="#ED8991" stroke-opacity="0.2" stroke-width="2"/>
<path d="M390.581 43.5568H399.94L401.477 50.3522C404.027 44.659 408.456 42.7954 413.557 42.7954C418.999 42.7954 423.519 44.8295 425.808 50.5227C428.7 44.659 434.153 42.7954 439.254 42.7954C447.85 42.7954 454.238 47.0454 454.238 61.3181V86.7159H441.987V61.3181C441.987 54.5227 439.436 52.0568 435.52 52.0568C431.603 52.0568 428.54 54.4318 428.54 63.1022V86.7159H416.289V61.3181C416.289 54.5227 413.739 52.0568 409.822 52.0568C405.906 52.0568 402.843 54.4318 402.843 63.1022V86.7159H390.592V43.5568H390.581Z" fill="url(#paint5_linear_8_827)"/>
<path d="M453.238 61.3181V85.7159H442.987V61.3181C442.987 57.8256 442.337 55.2489 441.015 53.5296C439.652 51.7574 437.704 51.0568 435.52 51.0568C433.341 51.0568 431.255 51.7315 429.761 53.729C428.314 55.6621 427.54 58.6841 427.54 63.1022V85.7159H417.289V61.3181C417.289 57.8256 416.639 55.2489 415.317 53.5296C413.955 51.7574 412.007 51.0568 409.822 51.0568C407.644 51.0568 405.558 51.7315 404.063 53.729C402.617 55.6621 401.843 58.6841 401.843 63.1022V85.7159H391.592V44.5568H399.14L400.501 50.5728L401.163 53.4984L402.389 50.7611C403.588 48.0847 405.198 46.3678 407.056 45.3074C408.926 44.2401 411.124 43.7954 413.557 43.7954C416.159 43.7954 418.462 44.2823 420.362 45.3884C422.247 46.4858 423.81 48.2348 424.88 50.8957L425.715 52.9722L426.705 50.965C429.372 45.5563 434.389 43.7954 439.254 43.7954C443.398 43.7954 446.828 44.8183 449.24 47.3888C451.666 49.9741 453.238 54.3081 453.238 61.3181Z" stroke="#ED8991" stroke-opacity="0.2" stroke-width="2"/>
<path d="M469.984 23C473.9 23 476.542 25.8864 476.542 29.5455C476.542 33.2045 473.9 36.1705 469.984 36.1705C466.067 36.1705 463.346 33.2841 463.346 29.5455C463.346 25.8068 465.896 23 469.984 23ZM463.938 76.5114V43.5568H476.189V75.2386C476.189 77.7841 477.214 78.3864 478.739 78.3864C479.502 78.3864 480.276 78.2159 480.948 77.9659V86.4659C479.24 86.9773 476.178 87.5682 473.456 87.5682C467.331 87.5682 463.927 84.9318 463.927 76.5227L463.938 76.5114Z" fill="url(#paint6_linear_8_827)"/>
<path d="M467.121 84.5119C465.809 83.1242 464.984 80.7915 464.93 76.935L464.938 76.9265V76.5114V44.5568H475.189V75.2386C475.189 76.6086 475.458 77.7122 476.168 78.4571C476.895 79.2197 477.872 79.3864 478.739 79.3864C479.148 79.3864 479.555 79.3454 479.948 79.2743V85.7046C478.251 86.1379 475.719 86.5682 473.456 86.5682C470.513 86.5682 468.464 85.9321 467.121 84.5119ZM469.984 24C473.325 24 475.542 26.415 475.542 29.5455C475.542 32.6919 473.309 35.1705 469.984 35.1705C466.635 35.1705 464.346 32.7471 464.346 29.5455C464.346 27.9064 464.902 26.532 465.845 25.5716C466.785 24.6149 468.177 24 469.984 24Z" stroke="#ED8991" stroke-opacity="0.2" stroke-width="2"/>
<path d="M531.341 77.3642L527.516 66.3188C525.478 66.7392 523.348 66.9097 521.049 66.9097H519.512V86.7051H507.431V42.796L519.512 44.8301V57.1483C520.195 57.2279 520.787 57.2279 521.379 57.2279C530.316 57.2279 535.759 51.6256 535.759 44.7392C535.759 37.8529 531.079 32.9324 523.075 32.9324C517.713 32.9324 511.758 35.0574 508.524 39.2165L502.649 31.3983C507.158 25.8756 515.071 23.1597 523.166 23.1597C538.321 23.1597 548.363 32.421 548.363 44.7392C548.363 51.7847 544.617 58.1597 538.321 62.1483L542.237 73.2733C543.342 76.3301 544.958 77.3529 547.179 77.3529C548.203 77.3529 549.308 77.1824 550.503 76.8415V86.1029C548.033 87.0347 545.653 87.546 543.524 87.546C537.136 87.546 533.903 84.6597 531.353 77.3529L531.341 77.3642Z" fill="url(#paint7_linear_8_827)"/>
<path d="M518.512 66.9097V85.7051H508.431V43.9785L518.512 45.6758V57.1483V58.0386L519.396 58.1416C520.137 58.2279 520.778 58.2279 521.362 58.2279H521.379C526.059 58.2279 529.906 56.7583 532.595 54.3046C535.285 51.8487 536.759 48.456 536.759 44.7392C536.759 41.0638 535.505 37.8384 533.112 35.5333C530.721 33.2298 527.284 31.9324 523.075 31.9324C517.932 31.9324 512.167 33.8067 508.576 37.6209L503.931 31.4391C508.263 26.6185 515.557 24.1597 523.166 24.1597C537.898 24.1597 547.363 33.0944 547.363 44.7392C547.363 51.4088 543.822 57.4797 537.785 61.3036L537.113 61.7295L537.377 62.4804L541.294 73.6054L541.294 73.6054L541.297 73.6131C541.886 75.2452 542.655 76.4546 543.675 77.2487C544.713 78.0559 545.906 78.3529 547.179 78.3529C547.926 78.3529 548.7 78.2711 549.503 78.1122V85.402C547.351 86.152 545.321 86.546 543.524 86.546C540.489 86.546 538.34 85.8648 536.647 84.4272C534.921 82.9625 533.55 80.6129 532.297 77.0233L531.773 75.522L531.764 75.5304L528.461 65.9915L528.173 65.162L527.314 65.3394C525.358 65.7427 523.3 65.9097 521.049 65.9097H519.512H518.512V66.9097Z" stroke="#ED8991" stroke-opacity="0.2" stroke-width="2"/>
<path d="M555.262 66.239V64.0345C555.262 50.864 563.175 42.7163 575.517 42.7163C586.664 42.7163 594.076 50.8754 594.076 64.0345V68.5345H567.604C568.116 76.5231 571.259 79.239 576.883 79.239C580.8 79.239 584.546 77.114 587.267 73.6368L593.222 80.0913C589.396 84.6822 583.601 87.5686 576.029 87.5686C563.608 87.5686 555.262 79.4095 555.262 66.2504V66.239ZM583.18 60.7163C582.667 54.0913 580.629 51.0345 575.517 51.0345C570.154 51.0345 568.116 54.0913 567.604 60.7163H583.18Z" fill="url(#paint8_linear_8_827)"/>
<path d="M593.076 64.0345V67.5345H567.604H566.538L566.606 68.5985C566.868 72.6848 567.811 75.6366 569.593 77.5618C571.405 79.5196 573.916 80.239 576.883 80.239C580.812 80.239 584.509 78.291 587.304 75.1519L591.879 80.1103C588.259 84.0761 582.95 86.5686 576.029 86.5686C570.042 86.5686 565.122 84.6067 561.699 81.1415C558.276 77.6757 556.262 72.6152 556.262 66.2504V66.239V64.0345C556.262 57.6491 558.177 52.5868 561.484 49.1275C564.787 45.6728 569.573 43.7163 575.517 43.7163C580.832 43.7163 585.188 45.6531 588.226 49.1018C591.276 52.563 593.076 57.6378 593.076 64.0345ZM583.18 61.7163H584.26L584.177 60.6392C583.917 57.2775 583.262 54.6146 581.869 52.7852C580.418 50.8797 578.294 50.0345 575.517 50.0345C572.631 50.0345 570.443 50.8692 568.954 52.7754C567.522 54.6088 566.867 57.2789 566.607 60.6392L566.524 61.7163H567.604H583.18Z" stroke="#ED8991" stroke-opacity="0.2" stroke-width="2"/>
<path d="M602.068 43.5569H611.427L612.965 50.3523C615.515 44.6591 620.194 42.7046 625.648 42.7046C634.244 42.7046 640.632 47.0341 640.632 61.3069V86.7046H628.381V61.3069C628.381 54.5114 625.83 52.0455 621.914 52.0455C617.234 52.0455 614.342 54.4205 614.342 63.091V86.7046H602.091V43.5569H602.068Z" fill="url(#paint9_linear_8_827)"/>
<path d="M639.632 61.3069V85.7046H629.381V61.3069C629.381 57.8143 628.731 55.2377 627.409 53.5183C626.046 51.7461 624.098 51.0455 621.914 51.0455C619.405 51.0455 617.154 51.6893 615.584 53.7019C614.068 55.6475 613.342 58.6883 613.342 63.091V85.7046H603.091V44.5569H610.628L611.989 50.5729L612.651 53.4985L613.877 50.7611C615.071 48.0964 616.735 46.3559 618.702 45.2686C620.682 44.1734 623.035 43.7046 625.648 43.7046C629.788 43.7046 633.218 44.745 635.632 47.3352C638.06 49.9412 639.632 54.2972 639.632 61.3069Z" stroke="#ED8991" stroke-opacity="0.2" stroke-width="2"/>
<path d="M648.112 67.1705V63.2614C648.112 50.091 654.238 42.7046 663.858 42.7046C670.417 42.7046 674.834 45.1705 677.476 49.6705L679.855 43.5569H687.427V75.2387C687.427 77.7841 688.451 78.3864 689.977 78.3864C690.74 78.3864 691.514 78.216 692.186 77.966V86.466C690.478 86.9773 687.415 87.5682 684.694 87.5682C680.015 87.5682 676.861 86.0341 675.677 81.4546C673.468 85.4432 669.631 87.5682 663.847 87.5682C654.226 87.5682 648.101 80.3523 648.101 67.1819L648.112 67.1705ZM667.433 78.8069C672.455 78.8069 675.176 75.2387 675.176 67.1705V63.2614C675.176 55.1932 672.455 51.4546 667.433 51.4546C663.266 51.4546 660.363 54.6819 660.363 63.1819V67.1705C660.363 75.6705 663.255 78.8069 667.433 78.8069Z" fill="url(#paint10_linear_8_827)"/>
<path d="M653.15 81.6929C650.656 78.5453 649.166 73.8344 649.103 67.5948L649.112 67.5855V67.1705V63.2614C649.112 56.8165 650.612 51.9216 653.165 48.6604C655.694 45.4294 659.33 43.7046 663.858 43.7046C670.122 43.7046 674.18 46.0314 676.613 50.1767L677.659 51.9575L678.408 50.0332L680.539 44.5569H686.427V75.2387C686.427 76.6086 686.696 77.7123 687.406 78.4571C688.133 79.2197 689.11 79.3864 689.977 79.3864C690.386 79.3864 690.793 79.3454 691.186 79.2744V85.7046C689.489 86.138 686.956 86.5682 684.694 86.5682C682.447 86.5682 680.703 86.1967 679.407 85.382C678.142 84.5872 677.186 83.297 676.645 81.2043L676.017 78.7759L674.802 80.9701C672.804 84.5778 669.345 86.5682 663.847 86.5682C659.31 86.5682 655.675 84.88 653.15 81.6929ZM667.433 79.8069C670.215 79.8069 672.486 78.7974 674.011 76.5812C675.488 74.4354 676.176 71.2844 676.176 67.1705V63.2614C676.176 59.1462 675.487 55.9585 674.017 53.7741C672.5 51.5196 670.232 50.4546 667.433 50.4546C665.049 50.4546 662.954 51.4016 661.504 53.5759C660.098 55.6835 659.363 58.8476 659.363 63.1819V67.1705C659.363 71.5033 660.095 74.648 661.502 76.7353C662.956 78.891 665.054 79.8069 667.433 79.8069Z" stroke="#ED8991" stroke-opacity="0.2" stroke-width="2"/>
<path d="M698.573 43.5568H707.932L709.469 50.3522C712.02 44.659 716.449 42.7954 721.549 42.7954C726.992 42.7954 731.512 44.8295 733.8 50.5227C736.692 44.659 742.146 42.7954 747.247 42.7954C755.843 42.7954 762.23 47.0454 762.23 61.3181V86.7159H749.979V61.3181C749.979 54.5227 747.429 52.0568 743.512 52.0568C739.596 52.0568 736.533 54.4318 736.533 63.1022V86.7159H724.282V61.3181C724.282 54.5227 721.731 52.0568 717.815 52.0568C713.898 52.0568 710.835 54.4318 710.835 63.1022V86.7159H698.585V43.5568H698.573Z" fill="url(#paint11_linear_8_827)"/>
<path d="M761.23 61.3181V85.7159H750.979V61.3181C750.979 57.8256 750.329 55.2489 749.007 53.5296C747.645 51.7574 745.696 51.0568 743.512 51.0568C741.334 51.0568 739.248 51.7315 737.753 53.729C736.307 55.6621 735.533 58.6841 735.533 63.1022V85.7159H725.282V61.3181C725.282 57.8256 724.632 55.2489 723.31 53.5296C721.947 51.7574 719.999 51.0568 717.815 51.0568C715.637 51.0568 713.55 51.7315 712.056 53.729C710.609 55.6621 709.835 58.6841 709.835 63.1022V85.7159H699.585V44.5568H707.133L708.494 50.5728L709.156 53.4984L710.382 50.7611C711.581 48.0847 713.19 46.3678 715.048 45.3074C716.919 44.2401 719.117 43.7954 721.549 43.7954C724.152 43.7954 726.454 44.2823 728.354 45.3884C730.24 46.4858 731.803 48.2348 732.872 50.8957L733.707 52.9722L734.697 50.965C737.365 45.5563 742.381 43.7954 747.247 43.7954C751.391 43.7954 754.821 44.8183 757.233 47.3888C759.659 49.9741 761.23 54.3081 761.23 61.3181Z" stroke="#ED8991" stroke-opacity="0.2" stroke-width="2"/>
<path d="M769.733 66.239V64.0345C769.733 50.864 777.646 42.7163 789.988 42.7163C801.135 42.7163 808.547 50.8754 808.547 64.0345V68.5345H782.075C782.588 76.5231 785.73 79.239 791.355 79.239C795.271 79.239 799.017 77.114 801.738 73.6368L807.693 80.0913C803.867 84.6822 798.072 87.5686 790.501 87.5686C778.079 87.5686 769.733 79.4095 769.733 66.2504V66.239ZM797.651 60.7163C797.139 54.0913 795.101 51.0345 789.988 51.0345C784.626 51.0345 782.588 54.0913 782.075 60.7163H797.651Z" fill="url(#paint12_linear_8_827)"/>
<path d="M807.547 64.0345V67.5345H782.075H781.009L781.077 68.5985C781.34 72.6848 782.282 75.6366 784.064 77.5618C785.876 79.5196 788.387 80.239 791.355 80.239C795.283 80.239 798.98 78.291 801.776 75.1519L806.35 80.1103C802.731 84.0761 797.421 86.5686 790.501 86.5686C784.513 86.5686 779.593 84.6067 776.17 81.1415C772.748 77.6757 770.733 72.6152 770.733 66.2504V66.239V64.0345C770.733 57.6491 772.649 52.5868 775.955 49.1275C779.258 45.6728 784.044 43.7163 789.988 43.7163C795.303 43.7163 799.659 45.6531 802.697 49.1018C805.747 52.563 807.547 57.6378 807.547 64.0345ZM797.651 61.7163H798.731L798.648 60.6392C798.388 57.2775 797.733 54.6146 796.34 52.7852C794.889 50.8797 792.765 50.0345 789.988 50.0345C787.103 50.0345 784.914 50.8692 783.425 52.7754C781.993 54.6088 781.338 57.2789 781.078 60.6392L780.995 61.7163H782.075H797.651Z" stroke="#ED8991" stroke-opacity="0.2" stroke-width="2"/>
<path d="M816.54 43.5569H825.899L827.516 50.6023C828.962 45.25 832.286 42.7046 837.558 42.7046C839.596 42.7046 841.816 43.216 843 43.9773L842.146 53.0682C840.951 52.4773 838.821 52.0455 836.875 52.0455C831.341 52.0455 828.791 55.4432 828.791 63.9432V86.7046H816.54V43.5569Z" fill="url(#paint13_linear_8_827)"/>
<path d="M837.558 43.7046C839.192 43.7046 840.879 44.0584 841.943 44.5419L841.273 51.6691C839.974 51.2808 838.36 51.0455 836.875 51.0455C833.883 51.0455 831.504 51.981 829.937 54.236C828.428 56.4054 827.791 59.6363 827.791 63.9432V85.7046H817.54V44.5569H825.102L826.541 50.826L828.481 50.8631C829.164 48.3333 830.262 46.5714 831.718 45.4344C833.17 44.2994 835.085 43.7046 837.558 43.7046Z" stroke="#ED8991" stroke-opacity="0.2" stroke-width="2"/>
<mask id="path-29-outside-1_8_827" maskUnits="userSpaceOnUse" x="0" y="0" width="112" height="105" fill="black">
<rect fill="white" width="112" height="105"/>
<path fill-rule="evenodd" clip-rule="evenodd" d="M58.1523 25.0962C65.4886 12.8516 78.3138 4.09076 92.3758 3C95.591 17.3064 94.8704 32.4674 90.3735 46.4175C90.914 47.3126 91.4288 48.2247 91.9434 49.1365C93.122 51.2246 94.2996 53.3109 95.7826 55.1881C98.0105 58.0083 101.118 60.3668 104.684 60.6177C104.324 61.1146 103.962 61.6089 103.6 62.1033C103.238 62.5975 102.876 63.0917 102.516 63.5884C103.955 63.5182 105.813 62.1733 106.902 61.2099C107.481 65.8064 105.443 71.4066 102.246 74.7186C102.891 74.6031 103.538 74.4852 104.185 74.3673C104.832 74.2494 105.478 74.1314 106.123 74.016C103.607 77.1494 100.633 80.1637 97.0865 82.8602C97.4812 83.4348 97.8821 84.0157 98.2902 84.6041C100.178 87.334 100.438 91.0172 98.8996 93.998C97.8306 96.0654 96.342 97.892 94.5637 99.277C93.5547 100.06 92.196 100.692 90.6974 101.194C89.6287 101.551 88.5428 101.823 87.4472 102.013C84.5845 103.364 80.4292 103.184 76.2611 102.338C71.9879 101.471 65.1056 98.7236 60.0454 96.7034L60.045 96.7032L60.0446 96.7031L60.0445 96.703C58.9531 96.2673 57.9466 95.8654 57.0692 95.5236C42.9049 95.5236 29.8311 92.3437 21.2043 87.4514C15.7432 85.4274 10.6434 82.5762 6.64692 78.3115C7.94569 78.6427 9.35436 78.5223 10.5732 77.9502C6.15738 76.4147 2.96041 71.8382 3.00037 67.1212C4.08934 68.6065 5.87765 69.5499 7.70592 69.58C6.17737 68.5363 5.03844 66.9305 4.54891 65.134C9.1926 64.1318 12.8845 60.6375 15.5765 56.6109C11.3848 50.2043 9.29097 42.4562 8.655 34.7645C7.89611 25.5862 9.07337 16.3778 10.2417 7.2395L10.2435 7.22519C24.1452 7.68336 37.9546 14.5462 47.6426 25.3013C51.0771 24.7203 54.6214 24.6331 58.1523 25.0962Z"/>
</mask>
<path fill-rule="evenodd" clip-rule="evenodd" d="M58.1523 25.0962C65.4886 12.8516 78.3138 4.09076 92.3758 3C95.591 17.3064 94.8704 32.4674 90.3735 46.4175C90.914 47.3126 91.4288 48.2247 91.9434 49.1365C93.122 51.2246 94.2996 53.3109 95.7826 55.1881C98.0105 58.0083 101.118 60.3668 104.684 60.6177C104.324 61.1146 103.962 61.6089 103.6 62.1033C103.238 62.5975 102.876 63.0917 102.516 63.5884C103.955 63.5182 105.813 62.1733 106.902 61.2099C107.481 65.8064 105.443 71.4066 102.246 74.7186C102.891 74.6031 103.538 74.4852 104.185 74.3673C104.832 74.2494 105.478 74.1314 106.123 74.016C103.607 77.1494 100.633 80.1637 97.0865 82.8602C97.4812 83.4348 97.8821 84.0157 98.2902 84.6041C100.178 87.334 100.438 91.0172 98.8996 93.998C97.8306 96.0654 96.342 97.892 94.5637 99.277C93.5547 100.06 92.196 100.692 90.6974 101.194C89.6287 101.551 88.5428 101.823 87.4472 102.013C84.5845 103.364 80.4292 103.184 76.2611 102.338C71.9879 101.471 65.1056 98.7236 60.0454 96.7034L60.045 96.7032L60.0446 96.7031L60.0445 96.703C58.9531 96.2673 57.9466 95.8654 57.0692 95.5236C42.9049 95.5236 29.8311 92.3437 21.2043 87.4514C15.7432 85.4274 10.6434 82.5762 6.64692 78.3115C7.94569 78.6427 9.35436 78.5223 10.5732 77.9502C6.15738 76.4147 2.96041 71.8382 3.00037 67.1212C4.08934 68.6065 5.87765 69.5499 7.70592 69.58C6.17737 68.5363 5.03844 66.9305 4.54891 65.134C9.1926 64.1318 12.8845 60.6375 15.5765 56.6109C11.3848 50.2043 9.29097 42.4562 8.655 34.7645C7.89611 25.5862 9.07337 16.3778 10.2417 7.2395L10.2435 7.22519C24.1452 7.68336 37.9546 14.5462 47.6426 25.3013C51.0771 24.7203 54.6214 24.6331 58.1523 25.0962Z" fill="#FEFCF6"/>
<path d="M92.3758 3L94.3272 2.56146L93.9475 0.872082L92.2212 1.00599L92.3758 3ZM58.1523 25.0962L57.8922 27.0792L59.1934 27.2498L59.8679 26.1241L58.1523 25.0962ZM90.3735 46.4175L88.4699 45.8038L88.1903 46.6712L88.6614 47.4512L90.3735 46.4175ZM91.9434 49.1365L93.6851 48.1534L93.6851 48.1534L91.9434 49.1365ZM95.7826 55.1881L94.2132 56.4279L94.2132 56.4279L95.7826 55.1881ZM104.684 60.6177L106.304 61.7906L108.415 58.8752L104.825 58.6227L104.684 60.6177ZM103.6 62.1033L105.213 63.2853L105.213 63.2853L103.6 62.1033ZM102.516 63.5884L100.896 62.4156L98.4538 65.7892L102.614 65.5861L102.516 63.5884ZM106.902 61.2099L108.886 60.9597L108.412 57.2028L105.576 59.712L106.902 61.2099ZM102.246 74.7186L100.808 73.3295L96.5144 77.777L102.599 76.6872L102.246 74.7186ZM104.185 74.3673L103.826 72.3997L103.826 72.3997L104.185 74.3673ZM106.123 74.016L107.682 75.2681L111.024 71.1064L105.77 72.0474L106.123 74.016ZM97.0865 82.8602L95.876 81.2681L94.3588 82.4217L95.438 83.9926L97.0865 82.8602ZM98.2902 84.6041L99.9351 83.4664L99.9336 83.4643L98.2902 84.6041ZM98.8996 93.998L100.676 94.9166L100.677 94.9153L98.8996 93.998ZM94.5637 99.277L95.7897 100.857L95.7926 100.855L94.5637 99.277ZM90.6974 101.194L91.3313 103.091L91.3324 103.09L90.6974 101.194ZM87.4472 102.013L87.1061 100.042L86.8389 100.088L86.5937 100.204L87.4472 102.013ZM76.2611 102.338L76.6587 100.378L76.6587 100.378L76.2611 102.338ZM60.0454 96.7034L59.3026 98.5603L59.3038 98.5608L60.0454 96.7034ZM60.045 96.7032L59.2835 98.5526L59.2928 98.5564L59.3022 98.5602L60.045 96.7032ZM60.0446 96.7031L59.2323 98.5307L59.2575 98.5419L59.2831 98.5524L60.0446 96.7031ZM60.0445 96.703L60.8568 94.8754L60.8217 94.8598L60.7861 94.8456L60.0445 96.703ZM57.0692 95.5236L57.7953 93.66L57.4451 93.5236H57.0692V95.5236ZM21.2043 87.4514L22.191 85.7117L22.0506 85.6321L21.8994 85.576L21.2043 87.4514ZM6.64692 78.3115L7.14111 76.3735L0.503898 74.681L5.18755 79.6791L6.64692 78.3115ZM10.5732 77.9502L11.423 79.7607L15.8686 77.6741L11.2301 76.0612L10.5732 77.9502ZM3.00037 67.1212L4.61333 65.9386L1.05148 61.0803L1.00044 67.1042L3.00037 67.1212ZM7.70592 69.58L7.67298 71.5798L14.342 71.6896L8.83375 67.9284L7.70592 69.58ZM4.54891 65.134L4.127 63.179L2.06454 63.6241L2.61927 65.6598L4.54891 65.134ZM15.5765 56.6109L17.2391 57.7225L17.9743 56.6229L17.2501 55.516L15.5765 56.6109ZM8.655 34.7645L6.6618 34.9293L6.6618 34.9293L8.655 34.7645ZM10.2417 7.2395L8.25782 6.98585L8.25781 6.98588L10.2417 7.2395ZM10.2435 7.22519L10.3094 5.22628L8.49046 5.16633L8.25965 6.97154L10.2435 7.22519ZM47.6426 25.3013L46.1566 26.6398L46.8923 27.4566L47.9762 27.2732L47.6426 25.3013ZM92.2212 1.00599C77.4364 2.15281 64.0645 11.3371 56.4366 24.0683L59.8679 26.1241C66.9127 14.366 79.1912 6.02871 92.5305 4.99401L92.2212 1.00599ZM92.277 47.0311C96.8827 32.7437 97.6213 17.2194 94.3272 2.56146L90.4245 3.43854C93.5607 17.3934 92.8581 32.1912 88.4699 45.8038L92.277 47.0311ZM93.6851 48.1534C93.1729 47.2459 92.6438 46.3082 92.0856 45.3837L88.6614 47.4512C89.1842 48.3171 89.6847 49.2035 90.2017 50.1195L93.6851 48.1534ZM97.352 53.9484C95.9811 52.2131 94.8767 50.2645 93.6851 48.1534L90.2017 50.1195C91.3673 52.1846 92.618 54.4086 94.2132 56.4279L97.352 53.9484ZM104.825 58.6227C102.052 58.4276 99.4081 56.5511 97.352 53.9484L94.2132 56.4279C96.6129 59.4655 100.183 62.306 104.544 62.6128L104.825 58.6227ZM105.213 63.2853C105.575 62.7917 105.941 62.2928 106.304 61.7906L103.064 59.4449C102.708 59.9364 102.35 60.4261 101.987 60.9212L105.213 63.2853ZM104.136 64.7613C104.492 64.2699 104.851 63.7803 105.213 63.2853L101.987 60.9212C101.625 61.4147 101.26 61.9135 100.896 62.4156L104.136 64.7613ZM105.576 59.712C105.097 60.136 104.461 60.6314 103.816 61.0164C103.119 61.432 102.64 61.58 102.419 61.5908L102.614 65.5861C103.832 65.5266 105.001 64.9671 105.865 64.4518C106.78 63.906 107.617 63.2472 108.227 62.7078L105.576 59.712ZM103.685 76.1076C107.27 72.394 109.547 66.2025 108.886 60.9597L104.917 61.46C105.415 65.4104 103.617 70.4192 100.808 73.3295L103.685 76.1076ZM103.826 72.3997C103.179 72.5177 102.535 72.6351 101.894 72.7499L102.599 76.6872C103.247 76.5712 103.897 76.4527 104.543 76.3348L103.826 72.3997ZM105.77 72.0474C105.122 72.1634 104.472 72.2819 103.826 72.3997L104.543 76.3348C105.191 76.2168 105.835 76.0995 106.475 75.9847L105.77 72.0474ZM98.297 84.4523C101.987 81.6463 105.077 78.5139 107.682 75.2681L104.563 72.7639C102.138 75.7848 99.2785 78.6811 95.876 81.2681L98.297 84.4523ZM95.438 83.9926C95.8343 84.5696 96.2369 85.153 96.6468 85.744L99.9336 83.4643C99.5273 82.8785 99.1281 82.3 98.735 81.7278L95.438 83.9926ZM96.6453 85.7418C98.1167 87.869 98.319 90.7624 97.1224 93.0807L100.677 94.9153C102.557 91.2721 102.24 86.7989 99.935 83.4664L96.6453 85.7418ZM97.123 93.0794C96.1785 94.9061 94.8713 96.5025 93.3348 97.6991L95.7926 100.855C97.8128 99.2816 99.4827 97.2248 100.676 94.9166L97.123 93.0794ZM93.3378 97.6968C92.5779 98.2863 91.4545 98.8312 90.0623 99.2974L91.3324 103.09C92.9374 102.553 94.5314 101.833 95.7897 100.857L93.3378 97.6968ZM90.0634 99.2971C89.0918 99.6218 88.1038 99.8693 87.1061 100.042L87.7884 103.983C88.9819 103.777 90.1657 103.48 91.3313 103.091L90.0634 99.2971ZM75.8635 104.298C80.0983 105.157 84.8139 105.467 88.3008 103.821L86.5937 100.204C84.355 101.26 80.7601 101.21 76.6587 100.378L75.8635 104.298ZM59.3038 98.5608C64.2843 100.549 71.3695 103.387 75.8635 104.298L76.6587 100.378C72.6063 99.556 65.9269 96.898 60.7869 94.8459L59.3038 98.5608ZM59.3022 98.5602L59.3026 98.5603L60.7882 94.8464L60.7878 94.8463L59.3022 98.5602ZM59.2831 98.5524L59.2835 98.5526L60.8065 94.8539L60.8061 94.8537L59.2831 98.5524ZM59.2322 98.5306L59.2323 98.5307L60.8569 94.8754L60.8568 94.8754L59.2322 98.5306ZM56.3431 97.3871C57.2111 97.7253 58.2093 98.1238 59.3029 98.5605L60.7861 94.8456C59.6969 94.4108 58.682 94.0055 57.7953 93.66L56.3431 97.3871ZM20.2177 89.1911C29.2173 94.2949 42.6525 97.5236 57.0692 97.5236V93.5236C43.1573 93.5236 30.4449 90.3926 22.191 85.7117L20.2177 89.1911ZM5.18755 79.6791C9.46242 84.2409 14.8649 87.2348 20.5093 89.3267L21.8994 85.576C16.6215 83.62 11.8243 80.9116 8.10629 76.9439L5.18755 79.6791ZM9.72345 76.1397C8.93579 76.5094 8.00315 76.5934 7.14111 76.3735L6.15273 80.2495C7.88823 80.6921 9.77293 80.5352 11.423 79.7607L9.72345 76.1397ZM1.00044 67.1042C0.953319 72.6666 4.67897 78.018 9.91632 79.8393L11.2301 76.0612C7.6358 74.8113 4.9675 71.0098 5.0003 67.1381L1.00044 67.1042ZM7.73886 67.5803C6.55171 67.5608 5.34176 66.9322 4.61333 65.9386L1.38741 68.3037C2.83692 70.2808 5.20359 71.5391 7.67298 71.5798L7.73886 67.5803ZM2.61927 65.6598C3.23262 67.9107 4.65334 69.9174 6.57809 71.2317L8.83375 67.9284C7.70139 67.1551 6.84426 65.9503 6.47855 64.6082L2.61927 65.6598ZM13.9138 55.4994C11.3552 59.3265 8.04386 62.3337 4.127 63.179L4.97081 67.089C10.3413 65.93 14.4139 61.9486 17.2391 57.7225L13.9138 55.4994ZM6.6618 34.9293C7.31667 42.8496 9.47953 50.9452 13.9028 57.7059L17.2501 55.516C13.2901 49.4634 11.2653 42.0629 10.6482 34.5997L6.6618 34.9293ZM8.25781 6.98588C7.09421 16.0874 5.88266 25.506 6.6618 34.9293L10.6482 34.5997C9.90957 25.6664 11.0525 16.6681 12.2255 7.49313L8.25781 6.98588ZM8.25965 6.97154L8.25782 6.98585L12.2255 7.49316L12.2273 7.47885L8.25965 6.97154ZM49.1286 23.9627C39.1122 12.8431 24.8055 5.70403 10.3094 5.22628L10.1776 9.22411C23.485 9.66269 36.7969 16.2494 46.1566 26.6398L49.1286 23.9627ZM58.4123 23.1132C54.6783 22.6234 50.9338 22.7161 47.309 23.3293L47.9762 27.2732C51.2204 26.7245 54.5646 26.6428 57.8922 27.0792L58.4123 23.1132Z" fill="#F09199" mask="url(#path-29-outside-1_8_827)"/>
<path d="M55.7105 29.7464C62.3642 15.1137 76.5908 4.22441 92.3758 3C95.8425 18.4256 94.7336 34.8448 89.2488 49.6683C79.9076 41.5992 69.5574 34.7244 55.7105 29.7464Z" fill="#FEFCF6"/>
<path opacity="0.8" d="M75.5018 37.4845C79.6179 33.199 80.7268 26.9465 82.0756 21.1556C83.4243 15.3647 85.6022 9.12224 91.1869 6.09131C92.9952 19.8509 91.7364 34.022 87.5104 47.2397C83.8738 44.0582 80.2373 40.8667 75.5018 37.4845Z" fill="#F09199"/>
<path d="M16.8373 84.5239C24.9596 91.0374 40.2451 95.5236 57.0692 95.5236C62.0145 97.4505 71.066 101.284 76.2611 102.338C81.4562 103.392 86.6313 103.412 89.3087 100.722C65.5612 96.5071 41.5339 84.6644 16.8373 84.5239Z" fill="#F09199"/>
<path d="M27.9668 89.542C20.0542 87.5047 12.2616 84.3031 6.64692 78.3115C7.94569 78.6427 9.35436 78.5223 10.5732 77.9502C6.15738 76.4147 2.96041 71.8382 3.00037 67.1212C4.08934 68.6065 5.87765 69.5499 7.70592 69.58C6.17737 68.5363 5.03844 66.9305 4.54891 65.134C9.80393 63.9999 13.8401 59.6743 16.5875 54.9975C19.3349 50.3206 21.1632 45.1319 24.0804 40.5654C32.1128 27.96 48.7271 21.6773 63.8328 26.3341C74.6126 29.2647 84.2036 36.4406 90.1279 46.0151C92.0162 49.0761 93.5547 52.368 95.7826 55.1882C98.0105 58.0083 101.118 60.3668 104.684 60.6177C103.965 61.6113 103.236 62.5949 102.516 63.5884C103.955 63.5182 105.374 62.9461 106.462 61.9827C107.042 66.5792 105.443 71.4066 102.246 74.7186C103.535 74.4877 104.834 74.2469 106.123 74.016C94.254 88.7993 72.1749 100.933 27.9668 89.542Z" fill="#FEFCF6"/>
<path d="M90.048 72.4001C92.6655 76.3343 95.283 80.2685 98.2902 84.6041C100.178 87.334 100.438 91.0173 98.8996 93.998C97.8306 96.0655 96.342 97.8921 94.5637 99.277C93.5547 100.06 92.196 100.692 90.6974 101.194C85.5622 102.91 80.0275 102.659 74.9423 100.762C67.0797 97.8318 60.416 94.9213 51.8841 91.9908" fill="#FEFCF6"/>
<path d="M51.4345 30.0072C41.7936 16.5788 26.0785 7.74698 10.2435 7.2251C9.0746 16.3681 7.89572 25.5813 8.655 34.7644C9.41428 43.9475 12.2516 53.2109 18.2559 60.176C25.7288 51.9764 33.8911 44.4092 51.4345 30.0072Z" fill="#FEFCF6"/>
<path opacity="0.8" d="M18.0761 53.9335C11.3624 44.66 8.1355 25.802 12.1117 10.3262C15.9881 10.266 19.275 13.588 21.1931 17.2914C23.1013 20.9947 23.9505 25.1497 25.2993 29.0939C26.648 33.0381 28.6861 36.9924 32.1128 39.5315C29.2355 38.4476 25.8887 38.6885 23.1913 40.1739C24.7798 40.2642 26.3383 40.8262 27.6271 41.7796C23.9905 43.6363 21.2231 47.149 20.264 51.1334C21.1232 50.7119 21.9824 50.2803 22.8416 49.8588C21.8126 51.6553 20.1042 53.0704 18.0761 53.9335Z" fill="#F09199"/>
<path d="M83.6141 72.1291C84.0737 67.2816 85.3825 63.1969 87.2907 60.5975C89.1989 58.0082 91.6965 56.9343 94.334 57.5666C93.7146 58.5301 93.1052 59.5036 92.3359 60.3968C92.1361 64.4615 91.157 67.944 89.6184 70.0516C88.0699 72.1592 85.9819 72.8618 83.6141 72.1291Z" fill="#592624"/>
<mask id="mask0_8_827" style="mask-type:luminance" maskUnits="userSpaceOnUse" x="83" y="57" width="12" height="17">
<path d="M83.6141 72.1291C84.0737 67.2816 85.3825 63.1969 87.2907 60.5975C89.1989 58.0082 91.6965 56.9343 94.334 57.5666C93.7146 58.5301 93.1052 59.5036 92.3359 60.3968C92.1361 64.4615 92.3459 69.7606 90.8073 71.8682C89.2488 73.9758 85.9819 72.8618 83.6141 72.1291Z" fill="white"/>
</mask>
<g mask="url(#mask0_8_827)">
<path d="M85.2525 64.1603C85.4523 65.6256 85.8519 66.9403 86.3715 67.9841C87.1407 69.5497 88.1797 70.4831 89.1888 70.3326C90.8672 70.0817 91.8263 66.9102 91.3268 63.2571C91.137 61.8821 90.7673 60.6376 90.2977 59.624C89.5085 57.9479 88.4295 56.9343 87.3805 57.0848C85.7121 57.3357 84.753 60.5071 85.2525 64.1603Z" fill="#E89E35"/>
<path d="M87.5603 58.6907C88.5294 61.832 89.0189 65.435 88.929 68.7369C88.1298 65.5554 87.6202 62.1833 87.5603 58.6907Z" fill="#91401D"/>
<path d="M85.2525 64.1603C85.4523 65.6256 85.8519 66.9403 86.3715 67.9841C86.3615 65.9869 86.6312 64.1101 87.1707 62.675C87.88 60.7882 89.0289 59.6842 90.2977 59.624C89.5085 57.9479 88.4295 56.9343 87.3805 57.0848C85.7121 57.3357 84.753 60.5071 85.2525 64.1603Z" fill="#91401D"/>
</g>
<path d="M63.0236 73.2432C60.476 68.8875 56.3199 65.3648 51.3047 63.3375C46.2894 61.3002 40.455 60.7582 34.8702 61.802C36.5287 62.5748 38.1971 63.3576 40.1552 64.0401C41.8736 67.7233 45.1305 70.7442 49.1767 72.4002C53.2229 74.0562 58.0383 74.3372 63.0236 73.2432Z" fill="#592624"/>
<mask id="mask1_8_827" style="mask-type:luminance" maskUnits="userSpaceOnUse" x="34" y="61" width="30" height="14">
<path d="M63.0236 73.2432C60.476 68.8875 56.3199 65.3648 51.3047 63.3375C46.2894 61.3002 40.455 60.7582 34.8702 61.802C36.5287 62.5748 38.1971 63.3576 40.1552 64.0401C41.8736 67.7233 43.0925 72.621 47.1486 74.277C51.1948 75.9329 58.0383 74.3372 63.0236 73.2432Z" fill="white"/>
</mask>
<g mask="url(#mask1_8_827)">
<path d="M56.8894 66.2381C56.9094 67.613 56.4498 68.8876 55.6306 69.9314C54.4317 71.4971 52.4336 72.5408 50.1758 72.581C46.4093 72.6512 43.2923 69.9113 43.2423 66.479C43.2223 65.1943 43.6419 63.9799 44.3513 62.9763C45.5501 61.3103 47.6082 60.1762 49.966 60.1361C53.7224 60.0658 56.8295 62.8057 56.8894 66.2381Z" fill="#E89E35"/>
<path d="M50.0959 61.6313C48.957 64.6823 49.0169 68.0645 50.2657 71.0754C51.005 68.0144 51.075 64.8429 50.0959 61.6313Z" fill="#91401D"/>
<path d="M56.8894 66.238C56.9094 67.613 56.4499 68.8876 55.6306 69.9313C55.0312 68.1047 53.8323 66.4287 52.1939 65.2043C50.0459 63.5985 47.1686 62.7956 44.3413 62.9662C45.5402 61.3002 47.5982 60.1661 49.956 60.126C53.7224 60.0658 56.8295 62.8056 56.8894 66.238Z" fill="#91401D"/>
</g>
<path opacity="0.8" d="M81.5061 89.1104C81.3063 87.0228 84.5832 85.0056 88.8192 84.6041C93.0552 84.2027 96.6518 85.5576 96.8416 87.6451C97.0414 89.7326 91.4467 93.3657 91.4467 93.3657C91.4467 93.3657 81.6959 91.1879 81.5061 89.1104Z" fill="#592624"/>
<path d="M69.7272 66.6595C69.7972 59.1926 65.5612 51.8461 59.0773 48.1929C56.4998 46.7377 53.3827 45.6036 52.1938 42.8838C52.1039 47.0789 54.112 51.274 57.4289 53.8232C54.7614 53.5422 52.2338 52.0769 50.6553 49.8991C50.3356 53.0404 51.7043 56.3122 54.172 58.2793C56.3899 60.0557 59.2571 60.7382 61.9046 61.792C64.5421 62.8357 67.2296 64.5619 69.7272 66.6595Z" fill="#F09199"/>
<path d="M80.557 65.0737C79.1383 57.7473 79.8277 50.3105 82.3153 46.3662C83.3044 44.8006 84.6132 43.516 84.6831 40.7861C85.5023 44.901 85.3125 49.1162 84.1636 51.8059C85.4124 51.3843 86.3715 49.8087 86.7311 47.5907C87.4704 50.6617 87.4105 53.9335 86.5813 56.001C85.832 57.8677 84.5632 58.6907 83.4642 59.8649C82.3653 61.0392 81.3762 62.8858 80.557 65.0737Z" fill="#F09199"/>
<defs>
<linearGradient id="paint0_linear_8_827" x1="166.016" y1="23.1707" x2="166.016" y2="86.7161" gradientUnits="userSpaceOnUse">
<stop stop-color="#F09199"/>
<stop offset="1" stop-color="#EC8890"/>
</linearGradient>
<linearGradient id="paint1_linear_8_827" x1="217.792" y1="42.7046" x2="217.792" y2="87.5682" gradientUnits="userSpaceOnUse">
<stop stop-color="#F09199"/>
<stop offset="1" stop-color="#EC8890"/>
</linearGradient>
<linearGradient id="paint2_linear_8_827" x1="265.515" y1="42.7046" x2="265.515" y2="86.7046" gradientUnits="userSpaceOnUse">
<stop stop-color="#F09199"/>
<stop offset="1" stop-color="#EC8890"/>
</linearGradient>
<linearGradient id="paint3_linear_8_827" x1="311.94" y1="42.6931" x2="311.94" y2="103" gradientUnits="userSpaceOnUse">
<stop stop-color="#F09199"/>
<stop offset="1" stop-color="#EC8890"/>
</linearGradient>
<linearGradient id="paint4_linear_8_827" x1="362.731" y1="43.5569" x2="362.731" y2="87.5683" gradientUnits="userSpaceOnUse">
<stop stop-color="#F09199"/>
<stop offset="1" stop-color="#EC8890"/>
</linearGradient>
<linearGradient id="paint5_linear_8_827" x1="422.409" y1="42.7954" x2="422.409" y2="86.7159" gradientUnits="userSpaceOnUse">
<stop stop-color="#F09199"/>
<stop offset="1" stop-color="#EC8890"/>
</linearGradient>
<linearGradient id="paint6_linear_8_827" x1="472.147" y1="23" x2="472.147" y2="87.5682" gradientUnits="userSpaceOnUse">
<stop stop-color="#F09199"/>
<stop offset="1" stop-color="#EC8890"/>
</linearGradient>
<linearGradient id="paint7_linear_8_827" x1="526.576" y1="23.1597" x2="526.576" y2="87.546" gradientUnits="userSpaceOnUse">
<stop stop-color="#F09199"/>
<stop offset="1" stop-color="#EC8890"/>
</linearGradient>
<linearGradient id="paint8_linear_8_827" x1="574.669" y1="42.7163" x2="574.669" y2="87.5686" gradientUnits="userSpaceOnUse">
<stop stop-color="#F09199"/>
<stop offset="1" stop-color="#EC8890"/>
</linearGradient>
<linearGradient id="paint9_linear_8_827" x1="621.35" y1="42.7046" x2="621.35" y2="86.7046" gradientUnits="userSpaceOnUse">
<stop stop-color="#F09199"/>
<stop offset="1" stop-color="#EC8890"/>
</linearGradient>
<linearGradient id="paint10_linear_8_827" x1="670.143" y1="42.7046" x2="670.143" y2="87.5682" gradientUnits="userSpaceOnUse">
<stop stop-color="#F09199"/>
<stop offset="1" stop-color="#EC8890"/>
</linearGradient>
<linearGradient id="paint11_linear_8_827" x1="730.402" y1="42.7954" x2="730.402" y2="86.7159" gradientUnits="userSpaceOnUse">
<stop stop-color="#F09199"/>
<stop offset="1" stop-color="#EC8890"/>
</linearGradient>
<linearGradient id="paint12_linear_8_827" x1="789.14" y1="42.7163" x2="789.14" y2="87.5686" gradientUnits="userSpaceOnUse">
<stop stop-color="#F09199"/>
<stop offset="1" stop-color="#EC8890"/>
</linearGradient>
<linearGradient id="paint13_linear_8_827" x1="829.77" y1="42.7046" x2="829.77" y2="86.7046" gradientUnits="userSpaceOnUse">
<stop stop-color="#F09199"/>
<stop offset="1" stop-color="#EC8890"/>
</linearGradient>
</defs>
</svg>
