<svg width="843" height="180" viewBox="0 0 843 180" fill="none" xmlns="http://www.w3.org/2000/svg">
<mask id="path-1-outside-1_8_827" maskUnits="userSpaceOnUse" x="0" y="37" width="112" height="105" fill="black">
<rect fill="white" y="37" width="112" height="105"/>
<path fill-rule="evenodd" clip-rule="evenodd" d="M58.1523 62.0962C65.4886 49.8516 78.3138 41.0908 92.3758 40C95.591 54.3064 94.8704 69.4674 90.3735 83.4175C90.914 84.3126 91.4288 85.2247 91.9434 86.1365C93.122 88.2246 94.2996 90.3109 95.7826 92.1881C98.0105 95.0083 101.118 97.3668 104.684 97.6177C104.324 98.1146 103.962 98.6089 103.6 99.1033C103.238 99.5975 102.876 100.092 102.516 100.588C103.955 100.518 105.813 99.1733 106.902 98.2099C107.481 102.806 105.443 108.407 102.246 111.719C102.891 111.603 103.538 111.485 104.185 111.367C104.832 111.249 105.478 111.131 106.123 111.016C103.607 114.149 100.633 117.164 97.0865 119.86C97.4812 120.435 97.8821 121.016 98.2902 121.604C100.178 124.334 100.438 128.017 98.8996 130.998C97.8306 133.065 96.342 134.892 94.5637 136.277C93.5547 137.06 92.196 137.692 90.6974 138.194C89.6287 138.551 88.5428 138.823 87.4472 139.013C84.5845 140.364 80.4292 140.184 76.2611 139.338C71.9879 138.471 65.1056 135.724 60.0454 133.703L60.045 133.703L60.0446 133.703L60.0445 133.703C58.9531 133.267 57.9466 132.865 57.0692 132.524C42.9049 132.524 29.8311 129.344 21.2043 124.451C15.7432 122.427 10.6434 119.576 6.64692 115.312C7.94569 115.643 9.35436 115.522 10.5732 114.95C6.15738 113.415 2.96041 108.838 3.00037 104.121C4.08934 105.607 5.87765 106.55 7.70592 106.58C6.17737 105.536 5.03844 103.93 4.54891 102.134C9.1926 101.132 12.8845 97.6375 15.5765 93.6109C11.3848 87.2043 9.29097 79.4562 8.655 71.7645C7.89611 62.5862 9.07337 53.3778 10.2417 44.2395L10.2435 44.2252C24.1452 44.6834 37.9546 51.5462 47.6426 62.3013C51.0771 61.7203 54.6214 61.6331 58.1523 62.0962Z"/>
</mask>
<path fill-rule="evenodd" clip-rule="evenodd" d="M58.1523 62.0962C65.4886 49.8516 78.3138 41.0908 92.3758 40C95.591 54.3064 94.8704 69.4674 90.3735 83.4175C90.914 84.3126 91.4288 85.2247 91.9434 86.1365C93.122 88.2246 94.2996 90.3109 95.7826 92.1881C98.0105 95.0083 101.118 97.3668 104.684 97.6177C104.324 98.1146 103.962 98.6089 103.6 99.1033C103.238 99.5975 102.876 100.092 102.516 100.588C103.955 100.518 105.813 99.1733 106.902 98.2099C107.481 102.806 105.443 108.407 102.246 111.719C102.891 111.603 103.538 111.485 104.185 111.367C104.832 111.249 105.478 111.131 106.123 111.016C103.607 114.149 100.633 117.164 97.0865 119.86C97.4812 120.435 97.8821 121.016 98.2902 121.604C100.178 124.334 100.438 128.017 98.8996 130.998C97.8306 133.065 96.342 134.892 94.5637 136.277C93.5547 137.06 92.196 137.692 90.6974 138.194C89.6287 138.551 88.5428 138.823 87.4472 139.013C84.5845 140.364 80.4292 140.184 76.2611 139.338C71.9879 138.471 65.1056 135.724 60.0454 133.703L60.045 133.703L60.0446 133.703L60.0445 133.703C58.9531 133.267 57.9466 132.865 57.0692 132.524C42.9049 132.524 29.8311 129.344 21.2043 124.451C15.7432 122.427 10.6434 119.576 6.64692 115.312C7.94569 115.643 9.35436 115.522 10.5732 114.95C6.15738 113.415 2.96041 108.838 3.00037 104.121C4.08934 105.607 5.87765 106.55 7.70592 106.58C6.17737 105.536 5.03844 103.93 4.54891 102.134C9.1926 101.132 12.8845 97.6375 15.5765 93.6109C11.3848 87.2043 9.29097 79.4562 8.655 71.7645C7.89611 62.5862 9.07337 53.3778 10.2417 44.2395L10.2435 44.2252C24.1452 44.6834 37.9546 51.5462 47.6426 62.3013C51.0771 61.7203 54.6214 61.6331 58.1523 62.0962Z" fill="#FEFCF6"/>
<path d="M92.3758 40L94.3272 39.5615L93.9475 37.8721L92.2212 38.006L92.3758 40ZM58.1523 62.0962L57.8922 64.0792L59.1934 64.2498L59.8679 63.1241L58.1523 62.0962ZM90.3735 83.4175L88.4699 82.8038L88.1903 83.6712L88.6614 84.4512L90.3735 83.4175ZM91.9434 86.1365L93.6851 85.1534L93.6851 85.1534L91.9434 86.1365ZM95.7826 92.1881L94.2132 93.4279L94.2132 93.4279L95.7826 92.1881ZM104.684 97.6177L106.304 98.7906L108.415 95.8752L104.825 95.6227L104.684 97.6177ZM103.6 99.1033L105.213 100.285L105.213 100.285L103.6 99.1033ZM102.516 100.588L100.896 99.4156L98.4538 102.789L102.614 102.586L102.516 100.588ZM106.902 98.2099L108.886 97.9597L108.412 94.2028L105.576 96.712L106.902 98.2099ZM102.246 111.719L100.808 110.33L96.5144 114.777L102.599 113.687L102.246 111.719ZM104.185 111.367L103.826 109.4L103.826 109.4L104.185 111.367ZM106.123 111.016L107.682 112.268L111.024 108.106L105.77 109.047L106.123 111.016ZM97.0865 119.86L95.876 118.268L94.3588 119.422L95.438 120.993L97.0865 119.86ZM98.2902 121.604L99.9351 120.466L99.9336 120.464L98.2902 121.604ZM98.8996 130.998L100.676 131.917L100.677 131.915L98.8996 130.998ZM94.5637 136.277L95.7897 137.857L95.7926 137.855L94.5637 136.277ZM90.6974 138.194L91.3313 140.091L91.3324 140.09L90.6974 138.194ZM87.4472 139.013L87.1061 137.042L86.8389 137.088L86.5937 137.204L87.4472 139.013ZM76.2611 139.338L76.6587 137.378L76.6587 137.378L76.2611 139.338ZM60.0454 133.703L59.3026 135.56L59.3038 135.561L60.0454 133.703ZM60.045 133.703L59.2835 135.553L59.2928 135.556L59.3022 135.56L60.045 133.703ZM60.0446 133.703L59.2323 135.531L59.2575 135.542L59.2831 135.552L60.0446 133.703ZM60.0445 133.703L60.8568 131.875L60.8217 131.86L60.7861 131.846L60.0445 133.703ZM57.0692 132.524L57.7953 130.66L57.4451 130.524H57.0692V132.524ZM21.2043 124.451L22.191 122.712L22.0506 122.632L21.8994 122.576L21.2043 124.451ZM6.64692 115.312L7.14111 113.374L0.503898 111.681L5.18755 116.679L6.64692 115.312ZM10.5732 114.95L11.423 116.761L15.8686 114.674L11.2301 113.061L10.5732 114.95ZM3.00037 104.121L4.61333 102.939L1.05148 98.0803L1.00044 104.104L3.00037 104.121ZM7.70592 106.58L7.67298 108.58L14.342 108.69L8.83375 104.928L7.70592 106.58ZM4.54891 102.134L4.127 100.179L2.06454 100.624L2.61927 102.66L4.54891 102.134ZM15.5765 93.6109L17.2391 94.7225L17.9743 93.6229L17.2501 92.516L15.5765 93.6109ZM8.655 71.7645L6.6618 71.9293L6.6618 71.9293L8.655 71.7645ZM10.2417 44.2395L8.25782 43.9858L8.25781 43.9859L10.2417 44.2395ZM10.2435 44.2252L10.3094 42.2263L8.49046 42.1663L8.25965 43.9715L10.2435 44.2252ZM47.6426 62.3013L46.1566 63.6398L46.8923 64.4566L47.9762 64.2732L47.6426 62.3013ZM92.2212 38.006C77.4364 39.1528 64.0645 48.3371 56.4366 61.0683L59.8679 63.1241C66.9127 51.366 79.1912 43.0287 92.5305 41.994L92.2212 38.006ZM92.277 84.0311C96.8827 69.7437 97.6213 54.2194 94.3272 39.5615L90.4245 40.4385C93.5607 54.3934 92.8581 69.1912 88.4699 82.8038L92.277 84.0311ZM93.6851 85.1534C93.1729 84.2459 92.6438 83.3082 92.0856 82.3837L88.6614 84.4512C89.1842 85.3171 89.6847 86.2035 90.2017 87.1195L93.6851 85.1534ZM97.352 90.9484C95.9811 89.2131 94.8767 87.2645 93.6851 85.1534L90.2017 87.1195C91.3673 89.1846 92.618 91.4086 94.2132 93.4279L97.352 90.9484ZM104.825 95.6227C102.052 95.4276 99.4081 93.5511 97.352 90.9484L94.2132 93.4279C96.6129 96.4655 100.183 99.306 104.544 99.6128L104.825 95.6227ZM105.213 100.285C105.575 99.7917 105.941 99.2928 106.304 98.7906L103.064 96.4449C102.708 96.9364 102.35 97.4261 101.987 97.9212L105.213 100.285ZM104.136 101.761C104.492 101.27 104.851 100.78 105.213 100.285L101.987 97.9212C101.625 98.4147 101.26 98.9135 100.896 99.4156L104.136 101.761ZM105.576 96.712C105.097 97.136 104.461 97.6314 103.816 98.0164C103.119 98.432 102.64 98.58 102.419 98.5908L102.614 102.586C103.832 102.527 105.001 101.967 105.865 101.452C106.78 100.906 107.617 100.247 108.227 99.7078L105.576 96.712ZM103.685 113.108C107.27 109.394 109.547 103.202 108.886 97.9597L104.917 98.46C105.415 102.41 103.617 107.419 100.808 110.33L103.685 113.108ZM103.826 109.4C103.179 109.518 102.535 109.635 101.894 109.75L102.599 113.687C103.247 113.571 103.897 113.453 104.543 113.335L103.826 109.4ZM105.77 109.047C105.122 109.163 104.472 109.282 103.826 109.4L104.543 113.335C105.191 113.217 105.835 113.099 106.475 112.985L105.77 109.047ZM98.297 121.452C101.987 118.646 105.077 115.514 107.682 112.268L104.563 109.764C102.138 112.785 99.2785 115.681 95.876 118.268L98.297 121.452ZM95.438 120.993C95.8343 121.57 96.2369 122.153 96.6468 122.744L99.9336 120.464C99.5273 119.878 99.1281 119.3 98.735 118.728L95.438 120.993ZM96.6453 122.742C98.1167 124.869 98.319 127.762 97.1224 130.081L100.677 131.915C102.557 128.272 102.24 123.799 99.935 120.466L96.6453 122.742ZM97.123 130.079C96.1785 131.906 94.8713 133.502 93.3348 134.699L95.7926 137.855C97.8128 136.282 99.4827 134.225 100.676 131.917L97.123 130.079ZM93.3378 134.697C92.5779 135.286 91.4545 135.831 90.0623 136.297L91.3324 140.09C92.9374 139.553 94.5314 138.833 95.7897 137.857L93.3378 134.697ZM90.0634 136.297C89.0918 136.622 88.1038 136.869 87.1061 137.042L87.7884 140.983C88.9819 140.777 90.1657 140.48 91.3313 140.091L90.0634 136.297ZM75.8635 141.298C80.0983 142.157 84.8139 142.467 88.3008 140.821L86.5937 137.204C84.355 138.26 80.7601 138.21 76.6587 137.378L75.8635 141.298ZM59.3038 135.561C64.2843 137.549 71.3695 140.387 75.8635 141.298L76.6587 137.378C72.6063 136.556 65.9269 133.898 60.7869 131.846L59.3038 135.561ZM59.3022 135.56L59.3026 135.56L60.7882 131.846L60.7878 131.846L59.3022 135.56ZM59.2831 135.552L59.2835 135.553L60.8065 131.854L60.8061 131.854L59.2831 135.552ZM59.2322 135.531L59.2323 135.531L60.8569 131.875L60.8568 131.875L59.2322 135.531ZM56.3431 134.387C57.2111 134.725 58.2093 135.124 59.3029 135.56L60.7861 131.846C59.6969 131.411 58.682 131.006 57.7953 130.66L56.3431 134.387ZM20.2177 126.191C29.2173 131.295 42.6525 134.524 57.0692 134.524V130.524C43.1573 130.524 30.4449 127.393 22.191 122.712L20.2177 126.191ZM5.18755 116.679C9.46242 121.241 14.8649 124.235 20.5093 126.327L21.8994 122.576C16.6215 120.62 11.8243 117.912 8.10629 113.944L5.18755 116.679ZM9.72345 113.14C8.93579 113.509 8.00315 113.593 7.14111 113.374L6.15273 117.249C7.88823 117.692 9.77293 117.535 11.423 116.761L9.72345 113.14ZM1.00044 104.104C0.953319 109.667 4.67897 115.018 9.91632 116.839L11.2301 113.061C7.6358 111.811 4.9675 108.01 5.0003 104.138L1.00044 104.104ZM7.73886 104.58C6.55171 104.561 5.34176 103.932 4.61333 102.939L1.38741 105.304C2.83692 107.281 5.20359 108.539 7.67298 108.58L7.73886 104.58ZM2.61927 102.66C3.23262 104.911 4.65334 106.917 6.57809 108.232L8.83375 104.928C7.70139 104.155 6.84426 102.95 6.47855 101.608L2.61927 102.66ZM13.9138 92.4994C11.3552 96.3265 8.04386 99.3337 4.127 100.179L4.97081 104.089C10.3413 102.93 14.4139 98.9486 17.2391 94.7225L13.9138 92.4994ZM6.6618 71.9293C7.31667 79.8496 9.47953 87.9452 13.9028 94.7059L17.2501 92.516C13.2901 86.4634 11.2653 79.0629 10.6482 71.5997L6.6618 71.9293ZM8.25781 43.9859C7.09421 53.0874 5.88266 62.506 6.6618 71.9293L10.6482 71.5997C9.90957 62.6664 11.0525 53.6681 12.2255 44.4931L8.25781 43.9859ZM8.25965 43.9715L8.25782 43.9858L12.2255 44.4932L12.2273 44.4789L8.25965 43.9715ZM49.1286 60.9627C39.1122 49.8431 24.8055 42.704 10.3094 42.2263L10.1776 46.2241C23.485 46.6627 36.7969 53.2494 46.1566 63.6398L49.1286 60.9627ZM58.4123 60.1132C54.6783 59.6234 50.9338 59.7161 47.309 60.3293L47.9762 64.2732C51.2204 63.7245 54.5646 63.6428 57.8922 64.0792L58.4123 60.1132Z" fill="#F09199" mask="url(#path-1-outside-1_8_827)"/>
<path d="M55.7105 66.7464C62.3642 52.1137 76.5908 41.2244 92.3758 40C95.8425 55.4256 94.7336 71.8448 89.2488 86.6683C79.9076 78.5992 69.5574 71.7244 55.7105 66.7464Z" fill="#FEFCF6"/>
<path opacity="0.8" d="M75.5018 74.4845C79.6179 70.199 80.7268 63.9465 82.0756 58.1556C83.4243 52.3647 85.6022 46.1222 91.1869 43.0913C92.9952 56.8509 91.7364 71.022 87.5104 84.2397C83.8738 81.0582 80.2373 77.8667 75.5018 74.4845Z" fill="#F09199"/>
<path d="M16.8373 121.524C24.9596 128.037 40.2451 132.524 57.0692 132.524C62.0145 134.451 71.066 138.284 76.2611 139.338C81.4562 140.392 86.6313 140.412 89.3087 137.722C65.5612 133.507 41.5339 121.664 16.8373 121.524Z" fill="#F09199"/>
<path d="M27.9668 126.542C20.0542 124.505 12.2616 121.303 6.64692 115.312C7.94569 115.643 9.35436 115.522 10.5732 114.95C6.15738 113.415 2.96041 108.838 3.00037 104.121C4.08934 105.607 5.87765 106.55 7.70592 106.58C6.17737 105.536 5.03844 103.93 4.54891 102.134C9.80393 101 13.8401 96.6743 16.5875 91.9975C19.3349 87.3206 21.1632 82.1319 24.0804 77.5654C32.1128 64.96 48.7271 58.6773 63.8328 63.3341C74.6126 66.2647 84.2036 73.4406 90.1279 83.0151C92.0162 86.0761 93.5547 89.368 95.7826 92.1882C98.0105 95.0083 101.118 97.3668 104.684 97.6177C103.965 98.6113 103.236 99.5949 102.516 100.588C103.955 100.518 105.374 99.9461 106.462 98.9827C107.042 103.579 105.443 108.407 102.246 111.719C103.535 111.488 104.834 111.247 106.123 111.016C94.254 125.799 72.1749 137.933 27.9668 126.542Z" fill="#FEFCF6"/>
<path d="M90.048 109.4C92.6655 113.334 95.283 117.269 98.2902 121.604C100.178 124.334 100.438 128.017 98.8996 130.998C97.8306 133.065 96.342 134.892 94.5637 136.277C93.5547 137.06 92.196 137.692 90.6974 138.194C85.5622 139.91 80.0275 139.659 74.9423 137.762C67.0797 134.832 60.416 131.921 51.8841 128.991" fill="#FEFCF6"/>
<path d="M51.4345 67.0072C41.7936 53.5788 26.0785 44.747 10.2435 44.2251C9.0746 53.3681 7.89572 62.5813 8.655 71.7644C9.41428 80.9475 12.2516 90.2109 18.2559 97.176C25.7288 88.9764 33.8911 81.4092 51.4345 67.0072Z" fill="#FEFCF6"/>
<path opacity="0.8" d="M18.0761 90.9335C11.3624 81.66 8.1355 62.802 12.1117 47.3262C15.9881 47.266 19.275 50.588 21.1931 54.2914C23.1013 57.9947 23.9505 62.1497 25.2993 66.0939C26.648 70.0381 28.6861 73.9924 32.1128 76.5315C29.2355 75.4476 25.8887 75.6885 23.1913 77.1739C24.7798 77.2642 26.3383 77.8262 27.6271 78.7796C23.9905 80.6363 21.2231 84.149 20.264 88.1334C21.1232 87.7119 21.9824 87.2803 22.8416 86.8588C21.8126 88.6553 20.1042 90.0704 18.0761 90.9335Z" fill="#F09199"/>
<path d="M83.6141 109.129C84.0737 104.282 85.3825 100.197 87.2907 97.5975C89.1989 95.0082 91.6965 93.9343 94.334 94.5666C93.7146 95.5301 93.1052 96.5036 92.3359 97.3968C92.1361 101.461 91.157 104.944 89.6184 107.052C88.0699 109.159 85.9819 109.862 83.6141 109.129Z" fill="#592624"/>
<mask id="mask0_8_827" style="mask-type:luminance" maskUnits="userSpaceOnUse" x="83" y="94" width="12" height="17">
<path d="M83.6141 109.129C84.0737 104.282 85.3825 100.197 87.2907 97.5975C89.1989 95.0082 91.6965 93.9343 94.334 94.5666C93.7146 95.5301 93.1052 96.5036 92.3359 97.3968C92.1361 101.461 92.3459 106.761 90.8073 108.868C89.2488 110.976 85.9819 109.862 83.6141 109.129Z" fill="white"/>
</mask>
<g mask="url(#mask0_8_827)">
<path d="M85.2525 101.16C85.4523 102.626 85.8519 103.94 86.3715 104.984C87.1407 106.55 88.1797 107.483 89.1888 107.333C90.8672 107.082 91.8263 103.91 91.3268 100.257C91.137 98.8821 90.7673 97.6376 90.2977 96.624C89.5085 94.9479 88.4295 93.9343 87.3805 94.0848C85.7121 94.3357 84.753 97.5071 85.2525 101.16Z" fill="#E89E35"/>
<path d="M87.5603 95.6907C88.5294 98.832 89.0189 102.435 88.929 105.737C88.1298 102.555 87.6202 99.1833 87.5603 95.6907Z" fill="#91401D"/>
<path d="M85.2525 101.16C85.4523 102.626 85.8519 103.94 86.3715 104.984C86.3615 102.987 86.6312 101.11 87.1707 99.675C87.88 97.7882 89.0289 96.6842 90.2977 96.624C89.5085 94.9479 88.4295 93.9343 87.3805 94.0848C85.7121 94.3357 84.753 97.5071 85.2525 101.16Z" fill="#91401D"/>
</g>
<path d="M63.0236 110.243C60.476 105.888 56.3199 102.365 51.3047 100.338C46.2894 98.3002 40.455 97.7582 34.8702 98.802C36.5287 99.5748 38.1971 100.358 40.1552 101.04C41.8736 104.723 45.1305 107.744 49.1767 109.4C53.2229 111.056 58.0383 111.337 63.0236 110.243Z" fill="#592624"/>
<mask id="mask1_8_827" style="mask-type:luminance" maskUnits="userSpaceOnUse" x="34" y="98" width="30" height="14">
<path d="M63.0236 110.243C60.476 105.888 56.3199 102.365 51.3047 100.338C46.2894 98.3002 40.455 97.7582 34.8702 98.802C36.5287 99.5748 38.1971 100.358 40.1552 101.04C41.8736 104.723 43.0925 109.621 47.1486 111.277C51.1948 112.933 58.0383 111.337 63.0236 110.243Z" fill="white"/>
</mask>
<g mask="url(#mask1_8_827)">
<path d="M56.8894 103.238C56.9094 104.613 56.4498 105.888 55.6306 106.931C54.4317 108.497 52.4336 109.541 50.1758 109.581C46.4093 109.651 43.2923 106.911 43.2423 103.479C43.2223 102.194 43.6419 100.98 44.3513 99.9763C45.5501 98.3103 47.6082 97.1762 49.966 97.1361C53.7224 97.0658 56.8295 99.8057 56.8894 103.238Z" fill="#E89E35"/>
<path d="M50.0959 98.6313C48.957 101.682 49.0169 105.065 50.2657 108.075C51.005 105.014 51.075 101.843 50.0959 98.6313Z" fill="#91401D"/>
<path d="M56.8894 103.238C56.9094 104.613 56.4499 105.888 55.6306 106.931C55.0312 105.105 53.8323 103.429 52.1939 102.204C50.0459 100.598 47.1686 99.7956 44.3413 99.9662C45.5402 98.3002 47.5982 97.1661 49.956 97.126C53.7224 97.0658 56.8295 99.8056 56.8894 103.238Z" fill="#91401D"/>
</g>
<path opacity="0.8" d="M81.5061 126.11C81.3063 124.023 84.5832 122.006 88.8192 121.604C93.0552 121.203 96.6518 122.558 96.8416 124.645C97.0414 126.733 91.4467 130.366 91.4467 130.366C91.4467 130.366 81.6959 128.188 81.5061 126.11Z" fill="#592624"/>
<path d="M69.7272 103.66C69.7972 96.1926 65.5612 88.8461 59.0773 85.1929C56.4998 83.7377 53.3827 82.6036 52.1938 79.8838C52.1039 84.0789 54.112 88.274 57.4289 90.8232C54.7614 90.5422 52.2338 89.0769 50.6553 86.8991C50.3356 90.0404 51.7043 93.3122 54.172 95.2793C56.3899 97.0557 59.2571 97.7382 61.9046 98.792C64.5421 99.8357 67.2296 101.562 69.7272 103.66Z" fill="#F09199"/>
<path d="M80.557 102.074C79.1383 94.7473 79.8277 87.3105 82.3153 83.3662C83.3044 81.8006 84.6132 80.516 84.6831 77.7861C85.5023 81.901 85.3125 86.1162 84.1636 88.8059C85.4124 88.3843 86.3715 86.8087 86.7311 84.5907C87.4704 87.6617 87.4105 90.9335 86.5813 93.001C85.832 94.8677 84.5632 95.6907 83.4642 96.8649C82.3653 98.0392 81.3762 99.8858 80.557 102.074Z" fill="#F09199"/>
<path d="M143 113.943H147.771V79.7957L159.691 81.8297V87.0116H160.887C168.72 87.0116 172.716 83.5343 172.716 77.8411C172.716 72.1479 168.379 69.5116 162.333 69.5116C156.97 69.5116 152.37 71.9775 149.137 75.9661L143 68.4093C147.771 62.8866 155.684 60.1707 163.255 60.1707C174.914 60.1707 185.298 65.8638 185.298 77.1593C185.298 83.5343 181.973 88.2843 176.781 90.7502C184.865 93.2161 189.032 98.4775 189.032 105.364C189.032 116.239 181.973 123.716 163.665 123.716H144.708L143 113.943ZM163.426 113.943C172.705 113.943 176.451 111.398 176.451 104.943C176.451 98.8298 172.364 95.8525 164.28 95.8525H159.68V113.943H163.426Z" fill="url(#paint0_linear_8_827)"/>
<path d="M163.665 122.716H145.548L144.19 114.943H147.771H148.771V113.943V80.9807L158.691 82.6736V87.0116V88.0116H159.691H160.887C164.933 88.0116 168.145 87.1157 170.363 85.3425C172.616 83.5425 173.716 80.9415 173.716 77.8411C173.716 74.7077 172.505 72.3156 170.389 70.7394C168.316 69.1952 165.481 68.5116 162.333 68.5116C157.072 68.5116 152.509 70.7536 149.16 74.4083L144.317 68.4443C148.895 63.6122 156.179 61.1707 163.255 61.1707C168.939 61.1707 174.233 62.5608 178.075 65.2486C181.884 67.9129 184.298 71.8652 184.298 77.1593C184.298 83.1332 181.209 87.5401 176.352 89.8469L174.021 90.9539L176.489 91.7067C180.39 92.8965 183.267 94.7365 185.167 97.0362C187.059 99.3271 188.032 102.134 188.032 105.364C188.032 110.57 186.354 114.838 182.591 117.836C178.787 120.866 172.707 122.716 163.665 122.716ZM159.68 94.8525H158.68V95.8525V113.943V114.943H159.68H163.426C168.107 114.943 171.626 114.311 173.985 112.688C176.439 110.998 177.451 108.378 177.451 104.943C177.451 101.641 176.331 99.0381 173.993 97.3023C171.711 95.6086 168.415 94.8525 164.28 94.8525H159.68Z" stroke="#ED8991" stroke-opacity="0.2" stroke-width="2"/>
<path d="M195.761 104.171V100.261C195.761 87.091 201.886 79.7046 211.507 79.7046C218.065 79.7046 222.483 82.1705 225.125 86.6705L227.504 80.5569H235.076V112.239C235.076 114.784 236.1 115.386 237.626 115.386C238.389 115.386 239.163 115.216 239.835 114.966V123.466C238.127 123.977 235.064 124.568 232.343 124.568C227.664 124.568 224.51 123.034 223.326 118.455C221.117 122.443 217.28 124.568 211.496 124.568C201.875 124.568 195.75 117.352 195.75 104.182L195.761 104.171ZM215.082 115.807C220.103 115.807 222.825 112.239 222.825 104.171V100.261C222.825 92.1932 220.103 88.4546 215.082 88.4546C210.915 88.4546 208.023 91.6819 208.023 100.182V104.171C208.023 112.671 210.915 115.807 215.082 115.807Z" fill="url(#paint1_linear_8_827)"/>
<path d="M200.799 118.693C198.305 115.545 196.814 110.834 196.752 104.594L196.761 104.585V104.171V100.261C196.761 93.8165 198.261 88.9216 200.814 85.6604C203.343 82.4294 206.978 80.7046 211.507 80.7046C217.771 80.7046 221.829 83.0314 224.262 87.1767L225.307 88.9575L226.056 87.0332L228.188 81.5569H234.076V112.239C234.076 113.609 234.345 114.712 235.055 115.457C235.782 116.22 236.759 116.386 237.626 116.386C238.035 116.386 238.442 116.345 238.835 116.274V122.705C237.138 123.138 234.605 123.568 232.343 123.568C230.095 123.568 228.352 123.197 227.056 122.382C225.791 121.587 224.835 120.297 224.294 118.204L223.666 115.776L222.451 117.97C220.453 121.578 216.994 123.568 211.496 123.568C206.959 123.568 203.324 121.88 200.799 118.693ZM215.082 116.807C217.864 116.807 220.135 115.797 221.66 113.581C223.137 111.435 223.825 108.284 223.825 104.171V100.261C223.825 96.1462 223.136 92.9585 221.666 90.7741C220.149 88.5196 217.881 87.4546 215.082 87.4546C212.698 87.4546 210.605 88.4019 209.158 90.5767C207.755 92.6843 207.023 95.8482 207.023 100.182V104.171C207.023 108.503 207.755 111.648 209.161 113.735C210.613 115.89 212.708 116.807 215.082 116.807Z" stroke="#ED8991" stroke-opacity="0.2" stroke-width="2"/>
<path d="M246.233 80.5569H255.592L257.13 87.3523C259.68 81.6591 264.359 79.7046 269.813 79.7046C278.409 79.7046 284.797 84.0341 284.797 98.3069V123.705H272.546V98.3069C272.546 91.5114 269.995 89.0455 266.079 89.0455C261.399 89.0455 258.507 91.4205 258.507 100.091V123.705H246.256V80.5569H246.233Z" fill="url(#paint2_linear_8_827)"/>
<path d="M283.797 98.3069V122.705H273.546V98.3069C273.546 94.8143 272.896 92.2377 271.574 90.5183C270.211 88.7461 268.263 88.0455 266.079 88.0455C263.57 88.0455 261.319 88.6893 259.749 90.7019C258.233 92.6475 257.507 95.6883 257.507 100.091V122.705H247.256V81.5569H254.793L256.154 87.5729L256.816 90.4985L258.042 87.7611C259.236 85.0964 260.9 83.3559 262.867 82.2686C264.847 81.1734 267.2 80.7046 269.813 80.7046C273.953 80.7046 277.383 81.745 279.797 84.3352C282.225 86.9412 283.797 91.2972 283.797 98.3069Z" stroke="#ED8991" stroke-opacity="0.2" stroke-width="2"/>
<path d="M297.218 137.386L300.201 128.466C302.581 130 305.314 130.67 308.877 130.67C313.728 130.67 319.341 128.716 319.341 119.114V117.159C316.961 120.727 313.295 122.682 308.023 122.682C298.402 122.682 292.277 115.375 292.277 102.204V100.17C292.277 86.9999 298.402 79.6931 308.023 79.6931C314.149 79.6931 318.749 82.3295 321.561 86.9999L324.031 80.5454H331.603V117.068C331.603 133.375 321.39 140 309.39 140C304.118 140 299.518 139.148 297.218 137.364V137.386ZM311.598 113.943C316.198 113.943 319.341 110.295 319.341 102.216V100.182C319.341 92.1136 316.187 88.3749 311.598 88.3749C307.431 88.3749 304.539 91.6022 304.539 100.102V102.227C304.539 110.727 307.431 113.954 311.598 113.954V113.943Z" fill="url(#paint3_linear_8_827)"/>
<path d="M324.719 81.5454H330.603V117.068C330.603 125.004 328.126 130.444 324.323 133.91C320.503 137.392 315.216 139 309.39 139C306.803 139 304.406 138.79 302.393 138.372C300.727 138.025 299.381 137.547 298.413 136.968L300.761 129.947C303.076 131.153 305.695 131.67 308.877 131.67C311.411 131.67 314.304 131.164 316.571 129.258C318.872 127.325 320.341 124.113 320.341 119.114V117.159V113.857L318.509 116.604C316.338 119.859 313.005 121.682 308.023 121.682C303.491 121.682 299.855 119.974 297.328 116.763C294.777 113.523 293.277 108.649 293.277 102.204V100.17C293.277 93.7254 294.777 88.8517 297.328 85.6114C299.855 82.4009 303.491 80.6931 308.023 80.6931C313.818 80.6931 318.083 83.1625 320.704 87.5158L321.762 89.2723L322.495 87.3574L324.719 81.5454ZM312.598 114.954V114.889C314.775 114.649 316.653 113.605 318.011 111.687C319.538 109.53 320.341 106.362 320.341 102.216V100.182C320.341 96.0394 319.535 92.8552 318.009 90.6788C316.451 88.4553 314.202 87.3749 311.598 87.3749C309.214 87.3749 307.121 88.3222 305.674 90.4971C304.271 92.6047 303.539 95.7685 303.539 100.102V102.227C303.539 106.561 304.271 109.725 305.674 111.832C307.121 114.007 309.214 114.954 311.598 114.954H312.598Z" stroke="#ED8991" stroke-opacity="0.2" stroke-width="2"/>
<path d="M341.304 106.546V80.5569H353.555V106.546C353.555 113.341 356.105 115.375 360.022 115.375C364.28 115.375 367.172 113.421 367.172 104.761V80.5569H379.423V112.239C379.423 114.784 380.447 115.386 381.973 115.386C382.736 115.386 383.51 115.216 384.182 114.966V123.466C382.474 123.977 379.411 124.568 376.69 124.568C371.92 124.568 368.857 122.955 367.673 118.364C364.952 122.955 360.693 124.568 356.264 124.568C347.668 124.568 341.281 120.318 341.281 106.557L341.304 106.546Z" fill="url(#paint4_linear_8_827)"/>
<path d="M346.27 120.031C343.923 117.585 342.378 113.56 342.285 107.173L342.304 107.164V106.546V81.5569H352.555V106.546C352.555 110.033 353.202 112.524 354.55 114.147C355.935 115.816 357.893 116.375 360.022 116.375C362.296 116.375 364.449 115.849 365.975 113.94C367.447 112.096 368.172 109.156 368.172 104.761V81.5569H378.423V112.239C378.423 113.609 378.692 114.712 379.402 115.457C380.129 116.22 381.106 116.386 381.973 116.386C382.382 116.386 382.789 116.345 383.182 116.274V122.705C381.485 123.138 378.952 123.568 376.69 123.568C374.401 123.568 372.663 123.178 371.38 122.348C370.125 121.536 369.185 120.223 368.641 118.114L368.04 115.783L366.812 117.854C364.312 122.072 360.429 123.568 356.264 123.568C352.119 123.568 348.684 122.545 346.27 120.031Z" stroke="#ED8991" stroke-opacity="0.2" stroke-width="2"/>
<path d="M390.581 80.5568H399.94L401.477 87.3522C404.027 81.659 408.456 79.7954 413.557 79.7954C418.999 79.7954 423.519 81.8295 425.808 87.5227C428.7 81.659 434.153 79.7954 439.254 79.7954C447.85 79.7954 454.238 84.0454 454.238 98.3181V123.716H441.987V98.3181C441.987 91.5227 439.436 89.0568 435.52 89.0568C431.603 89.0568 428.54 91.4318 428.54 100.102V123.716H416.289V98.3181C416.289 91.5227 413.739 89.0568 409.822 89.0568C405.906 89.0568 402.843 91.4318 402.843 100.102V123.716H390.592V80.5568H390.581Z" fill="url(#paint5_linear_8_827)"/>
<path d="M453.238 98.3181V122.716H442.987V98.3181C442.987 94.8256 442.337 92.2489 441.015 90.5296C439.652 88.7574 437.704 88.0568 435.52 88.0568C433.341 88.0568 431.255 88.7315 429.761 90.729C428.314 92.6621 427.54 95.6841 427.54 100.102V122.716H417.289V98.3181C417.289 94.8256 416.639 92.2489 415.317 90.5296C413.955 88.7574 412.007 88.0568 409.822 88.0568C407.644 88.0568 405.558 88.7315 404.063 90.729C402.617 92.6621 401.843 95.6841 401.843 100.102V122.716H391.592V81.5568H399.14L400.501 87.5728L401.163 90.4984L402.389 87.7611C403.588 85.0847 405.198 83.3678 407.056 82.3074C408.926 81.2401 411.124 80.7954 413.557 80.7954C416.159 80.7954 418.462 81.2823 420.362 82.3884C422.247 83.4858 423.81 85.2348 424.88 87.8957L425.715 89.9722L426.705 87.965C429.372 82.5563 434.389 80.7954 439.254 80.7954C443.398 80.7954 446.828 81.8183 449.24 84.3888C451.666 86.9741 453.238 91.3081 453.238 98.3181Z" stroke="#ED8991" stroke-opacity="0.2" stroke-width="2"/>
<path d="M469.984 60C473.9 60 476.542 62.8864 476.542 66.5455C476.542 70.2045 473.9 73.1705 469.984 73.1705C466.067 73.1705 463.346 70.2841 463.346 66.5455C463.346 62.8068 465.896 60 469.984 60ZM463.938 113.511V80.5568H476.189V112.239C476.189 114.784 477.214 115.386 478.739 115.386C479.502 115.386 480.276 115.216 480.948 114.966V123.466C479.24 123.977 476.178 124.568 473.456 124.568C467.331 124.568 463.927 121.932 463.927 113.523L463.938 113.511Z" fill="url(#paint6_linear_8_827)"/>
<path d="M467.121 121.512C465.809 120.124 464.984 117.791 464.93 113.935L464.938 113.926V113.511V81.5568H475.189V112.239C475.189 113.609 475.458 114.712 476.168 115.457C476.895 116.22 477.872 116.386 478.739 116.386C479.148 116.386 479.555 116.345 479.948 116.274V122.705C478.251 123.138 475.719 123.568 473.456 123.568C470.513 123.568 468.464 122.932 467.121 121.512ZM469.984 61C473.325 61 475.542 63.415 475.542 66.5455C475.542 69.6919 473.309 72.1705 469.984 72.1705C466.635 72.1705 464.346 69.7471 464.346 66.5455C464.346 64.9064 464.902 63.532 465.845 62.5716C466.785 61.6149 468.177 61 469.984 61Z" stroke="#ED8991" stroke-opacity="0.2" stroke-width="2"/>
<path d="M531.341 114.364L527.516 103.319C525.478 103.739 523.348 103.91 521.049 103.91H519.512V123.705H507.431V79.796L519.512 81.8301V94.1483C520.195 94.2279 520.787 94.2279 521.379 94.2279C530.316 94.2279 535.759 88.6256 535.759 81.7392C535.759 74.8529 531.079 69.9324 523.075 69.9324C517.713 69.9324 511.758 72.0574 508.524 76.2165L502.649 68.3983C507.158 62.8756 515.071 60.1597 523.166 60.1597C538.321 60.1597 548.363 69.421 548.363 81.7392C548.363 88.7847 544.617 95.1597 538.321 99.1483L542.237 110.273C543.342 113.33 544.958 114.353 547.179 114.353C548.203 114.353 549.308 114.182 550.503 113.841V123.103C548.033 124.035 545.653 124.546 543.524 124.546C537.136 124.546 533.903 121.66 531.353 114.353L531.341 114.364Z" fill="url(#paint7_linear_8_827)"/>
<path d="M518.512 103.91V122.705H508.431V80.9785L518.512 82.6758V94.1483V95.0386L519.396 95.1416C520.137 95.2279 520.778 95.2279 521.362 95.2279H521.379C526.059 95.2279 529.906 93.7583 532.595 91.3046C535.285 88.8487 536.759 85.456 536.759 81.7392C536.759 78.0638 535.505 74.8384 533.112 72.5333C530.721 70.2298 527.284 68.9324 523.075 68.9324C517.932 68.9324 512.167 70.8067 508.576 74.6209L503.931 68.4391C508.263 63.6185 515.557 61.1597 523.166 61.1597C537.898 61.1597 547.363 70.0944 547.363 81.7392C547.363 88.4088 543.822 94.4797 537.785 98.3036L537.113 98.7295L537.377 99.4804L541.294 110.605L541.294 110.605L541.297 110.613C541.886 112.245 542.655 113.455 543.675 114.249C544.713 115.056 545.906 115.353 547.179 115.353C547.926 115.353 548.7 115.271 549.503 115.112V122.402C547.351 123.152 545.321 123.546 543.524 123.546C540.489 123.546 538.34 122.865 536.647 121.427C534.921 119.963 533.55 117.613 532.297 114.023L531.773 112.522L531.764 112.53L528.461 102.991L528.173 102.162L527.314 102.339C525.358 102.743 523.3 102.91 521.049 102.91H519.512H518.512V103.91Z" stroke="#ED8991" stroke-opacity="0.2" stroke-width="2"/>
<path d="M555.262 103.239V101.034C555.262 87.864 563.175 79.7163 575.517 79.7163C586.664 79.7163 594.076 87.8754 594.076 101.034V105.534H567.604C568.116 113.523 571.259 116.239 576.883 116.239C580.8 116.239 584.546 114.114 587.267 110.637L593.222 117.091C589.396 121.682 583.601 124.569 576.029 124.569C563.608 124.569 555.262 116.41 555.262 103.25V103.239ZM583.18 97.7163C582.667 91.0913 580.629 88.0345 575.517 88.0345C570.154 88.0345 568.116 91.0913 567.604 97.7163H583.18Z" fill="url(#paint8_linear_8_827)"/>
<path d="M593.076 101.034V104.534H567.604H566.538L566.606 105.599C566.868 109.685 567.811 112.637 569.593 114.562C571.405 116.52 573.916 117.239 576.883 117.239C580.812 117.239 584.509 115.291 587.304 112.152L591.879 117.11C588.259 121.076 582.95 123.569 576.029 123.569C570.042 123.569 565.122 121.607 561.699 118.141C558.276 114.676 556.262 109.615 556.262 103.25V103.239V101.034C556.262 94.6491 558.177 89.5868 561.484 86.1275C564.787 82.6728 569.573 80.7163 575.517 80.7163C580.832 80.7163 585.188 82.6531 588.226 86.1018C591.276 89.563 593.076 94.6378 593.076 101.034ZM583.18 98.7163H584.26L584.177 97.6392C583.917 94.2775 583.262 91.6146 581.869 89.7852C580.418 87.8797 578.294 87.0345 575.517 87.0345C572.631 87.0345 570.443 87.8692 568.954 89.7754C567.522 91.6088 566.867 94.2789 566.607 97.6392L566.524 98.7163H567.604H583.18Z" stroke="#ED8991" stroke-opacity="0.2" stroke-width="2"/>
<path d="M602.068 80.5569H611.427L612.965 87.3523C615.515 81.6591 620.194 79.7046 625.648 79.7046C634.244 79.7046 640.632 84.0341 640.632 98.3069V123.705H628.381V98.3069C628.381 91.5114 625.83 89.0455 621.914 89.0455C617.234 89.0455 614.342 91.4205 614.342 100.091V123.705H602.091V80.5569H602.068Z" fill="url(#paint9_linear_8_827)"/>
<path d="M639.632 98.3069V122.705H629.381V98.3069C629.381 94.8143 628.731 92.2377 627.409 90.5183C626.046 88.7461 624.098 88.0455 621.914 88.0455C619.405 88.0455 617.154 88.6893 615.584 90.7019C614.068 92.6475 613.342 95.6883 613.342 100.091V122.705H603.091V81.5569H610.628L611.989 87.5729L612.651 90.4985L613.877 87.7611C615.071 85.0964 616.735 83.3559 618.702 82.2686C620.682 81.1734 623.035 80.7046 625.648 80.7046C629.788 80.7046 633.218 81.745 635.632 84.3352C638.06 86.9412 639.632 91.2972 639.632 98.3069Z" stroke="#ED8991" stroke-opacity="0.2" stroke-width="2"/>
<path d="M648.112 104.171V100.261C648.112 87.091 654.238 79.7046 663.858 79.7046C670.417 79.7046 674.834 82.1705 677.476 86.6705L679.855 80.5569H687.427V112.239C687.427 114.784 688.451 115.386 689.977 115.386C690.74 115.386 691.514 115.216 692.186 114.966V123.466C690.478 123.977 687.415 124.568 684.694 124.568C680.015 124.568 676.861 123.034 675.677 118.455C673.468 122.443 669.631 124.568 663.847 124.568C654.226 124.568 648.101 117.352 648.101 104.182L648.112 104.171ZM667.433 115.807C672.455 115.807 675.176 112.239 675.176 104.171V100.261C675.176 92.1932 672.455 88.4546 667.433 88.4546C663.266 88.4546 660.363 91.6819 660.363 100.182V104.171C660.363 112.671 663.255 115.807 667.433 115.807Z" fill="url(#paint10_linear_8_827)"/>
<path d="M653.15 118.693C650.656 115.545 649.166 110.834 649.103 104.595L649.112 104.586V104.171V100.261C649.112 93.8165 650.612 88.9216 653.165 85.6604C655.694 82.4294 659.33 80.7046 663.858 80.7046C670.122 80.7046 674.18 83.0314 676.613 87.1767L677.659 88.9575L678.408 87.0332L680.539 81.5569H686.427V112.239C686.427 113.609 686.696 114.712 687.406 115.457C688.133 116.22 689.11 116.386 689.977 116.386C690.386 116.386 690.793 116.345 691.186 116.274V122.705C689.489 123.138 686.956 123.568 684.694 123.568C682.447 123.568 680.703 123.197 679.407 122.382C678.142 121.587 677.186 120.297 676.645 118.204L676.017 115.776L674.802 117.97C672.804 121.578 669.345 123.568 663.847 123.568C659.31 123.568 655.675 121.88 653.15 118.693ZM667.433 116.807C670.215 116.807 672.486 115.797 674.011 113.581C675.488 111.435 676.176 108.284 676.176 104.171V100.261C676.176 96.1462 675.487 92.9585 674.017 90.7741C672.5 88.5196 670.232 87.4546 667.433 87.4546C665.049 87.4546 662.954 88.4016 661.504 90.5759C660.098 92.6835 659.363 95.8476 659.363 100.182V104.171C659.363 108.503 660.095 111.648 661.502 113.735C662.956 115.891 665.054 116.807 667.433 116.807Z" stroke="#ED8991" stroke-opacity="0.2" stroke-width="2"/>
<path d="M698.573 80.5568H707.932L709.469 87.3522C712.02 81.659 716.449 79.7954 721.549 79.7954C726.992 79.7954 731.512 81.8295 733.8 87.5227C736.692 81.659 742.146 79.7954 747.247 79.7954C755.843 79.7954 762.23 84.0454 762.23 98.3181V123.716H749.979V98.3181C749.979 91.5227 747.429 89.0568 743.512 89.0568C739.596 89.0568 736.533 91.4318 736.533 100.102V123.716H724.282V98.3181C724.282 91.5227 721.731 89.0568 717.815 89.0568C713.898 89.0568 710.835 91.4318 710.835 100.102V123.716H698.585V80.5568H698.573Z" fill="url(#paint11_linear_8_827)"/>
<path d="M761.23 98.3181V122.716H750.979V98.3181C750.979 94.8256 750.329 92.2489 749.007 90.5296C747.645 88.7574 745.696 88.0568 743.512 88.0568C741.334 88.0568 739.248 88.7315 737.753 90.729C736.307 92.6621 735.533 95.6841 735.533 100.102V122.716H725.282V98.3181C725.282 94.8256 724.632 92.2489 723.31 90.5296C721.947 88.7574 719.999 88.0568 717.815 88.0568C715.637 88.0568 713.55 88.7315 712.056 90.729C710.609 92.6621 709.835 95.6841 709.835 100.102V122.716H699.585V81.5568H707.133L708.494 87.5728L709.156 90.4984L710.382 87.7611C711.581 85.0847 713.19 83.3678 715.048 82.3074C716.919 81.2401 719.117 80.7954 721.549 80.7954C724.152 80.7954 726.454 81.2823 728.354 82.3884C730.24 83.4858 731.803 85.2348 732.872 87.8957L733.707 89.9722L734.697 87.965C737.365 82.5563 742.381 80.7954 747.247 80.7954C751.391 80.7954 754.821 81.8183 757.233 84.3888C759.659 86.9741 761.23 91.3081 761.23 98.3181Z" stroke="#ED8991" stroke-opacity="0.2" stroke-width="2"/>
<path d="M769.733 103.239V101.034C769.733 87.864 777.646 79.7163 789.988 79.7163C801.135 79.7163 808.547 87.8754 808.547 101.034V105.534H782.075C782.588 113.523 785.73 116.239 791.355 116.239C795.271 116.239 799.017 114.114 801.738 110.637L807.693 117.091C803.867 121.682 798.072 124.569 790.501 124.569C778.079 124.569 769.733 116.41 769.733 103.25V103.239ZM797.651 97.7163C797.139 91.0913 795.101 88.0345 789.988 88.0345C784.626 88.0345 782.588 91.0913 782.075 97.7163H797.651Z" fill="url(#paint12_linear_8_827)"/>
<path d="M807.547 101.034V104.534H782.075H781.009L781.077 105.599C781.34 109.685 782.282 112.637 784.064 114.562C785.876 116.52 788.387 117.239 791.355 117.239C795.283 117.239 798.98 115.291 801.776 112.152L806.35 117.11C802.731 121.076 797.421 123.569 790.501 123.569C784.513 123.569 779.593 121.607 776.17 118.141C772.748 114.676 770.733 109.615 770.733 103.25V103.239V101.034C770.733 94.6491 772.649 89.5868 775.955 86.1275C779.258 82.6728 784.044 80.7163 789.988 80.7163C795.303 80.7163 799.659 82.6531 802.697 86.1018C805.747 89.563 807.547 94.6378 807.547 101.034ZM797.651 98.7163H798.731L798.648 97.6392C798.388 94.2775 797.733 91.6146 796.34 89.7852C794.889 87.8797 792.765 87.0345 789.988 87.0345C787.103 87.0345 784.914 87.8692 783.425 89.7754C781.993 91.6088 781.338 94.2789 781.078 97.6392L780.995 98.7163H782.075H797.651Z" stroke="#ED8991" stroke-opacity="0.2" stroke-width="2"/>
<path d="M816.54 80.5569H825.899L827.516 87.6023C828.962 82.25 832.286 79.7046 837.558 79.7046C839.596 79.7046 841.816 80.216 843 80.9773L842.146 90.0682C840.951 89.4773 838.821 89.0455 836.875 89.0455C831.341 89.0455 828.791 92.4432 828.791 100.943V123.705H816.54V80.5569Z" fill="url(#paint13_linear_8_827)"/>
<path d="M837.558 80.7046C839.192 80.7046 840.879 81.0584 841.943 81.5419L841.273 88.6691C839.974 88.2808 838.36 88.0455 836.875 88.0455C833.883 88.0455 831.504 88.981 829.937 91.236C828.428 93.4054 827.791 96.6363 827.791 100.943V122.705H817.54V81.5569H825.102L826.541 87.826L828.481 87.8631C829.164 85.3333 830.262 83.5714 831.718 82.4344C833.17 81.2994 835.085 80.7046 837.558 80.7046Z" stroke="#ED8991" stroke-opacity="0.2" stroke-width="2"/>
<defs>
<linearGradient id="paint0_linear_8_827" x1="166.016" y1="60.1707" x2="166.016" y2="123.716" gradientUnits="userSpaceOnUse">
<stop stop-color="#F09199"/>
<stop offset="1" stop-color="#EC8890"/>
</linearGradient>
<linearGradient id="paint1_linear_8_827" x1="217.792" y1="79.7046" x2="217.792" y2="124.568" gradientUnits="userSpaceOnUse">
<stop stop-color="#F09199"/>
<stop offset="1" stop-color="#EC8890"/>
</linearGradient>
<linearGradient id="paint2_linear_8_827" x1="265.515" y1="79.7046" x2="265.515" y2="123.705" gradientUnits="userSpaceOnUse">
<stop stop-color="#F09199"/>
<stop offset="1" stop-color="#EC8890"/>
</linearGradient>
<linearGradient id="paint3_linear_8_827" x1="311.94" y1="79.6931" x2="311.94" y2="140" gradientUnits="userSpaceOnUse">
<stop stop-color="#F09199"/>
<stop offset="1" stop-color="#EC8890"/>
</linearGradient>
<linearGradient id="paint4_linear_8_827" x1="362.731" y1="80.5569" x2="362.731" y2="124.568" gradientUnits="userSpaceOnUse">
<stop stop-color="#F09199"/>
<stop offset="1" stop-color="#EC8890"/>
</linearGradient>
<linearGradient id="paint5_linear_8_827" x1="422.409" y1="79.7954" x2="422.409" y2="123.716" gradientUnits="userSpaceOnUse">
<stop stop-color="#F09199"/>
<stop offset="1" stop-color="#EC8890"/>
</linearGradient>
<linearGradient id="paint6_linear_8_827" x1="472.147" y1="60" x2="472.147" y2="124.568" gradientUnits="userSpaceOnUse">
<stop stop-color="#F09199"/>
<stop offset="1" stop-color="#EC8890"/>
</linearGradient>
<linearGradient id="paint7_linear_8_827" x1="526.576" y1="60.1597" x2="526.576" y2="124.546" gradientUnits="userSpaceOnUse">
<stop stop-color="#F09199"/>
<stop offset="1" stop-color="#EC8890"/>
</linearGradient>
<linearGradient id="paint8_linear_8_827" x1="574.669" y1="79.7163" x2="574.669" y2="124.569" gradientUnits="userSpaceOnUse">
<stop stop-color="#F09199"/>
<stop offset="1" stop-color="#EC8890"/>
</linearGradient>
<linearGradient id="paint9_linear_8_827" x1="621.35" y1="79.7046" x2="621.35" y2="123.705" gradientUnits="userSpaceOnUse">
<stop stop-color="#F09199"/>
<stop offset="1" stop-color="#EC8890"/>
</linearGradient>
<linearGradient id="paint10_linear_8_827" x1="670.143" y1="79.7046" x2="670.143" y2="124.568" gradientUnits="userSpaceOnUse">
<stop stop-color="#F09199"/>
<stop offset="1" stop-color="#EC8890"/>
</linearGradient>
<linearGradient id="paint11_linear_8_827" x1="730.402" y1="79.7954" x2="730.402" y2="123.716" gradientUnits="userSpaceOnUse">
<stop stop-color="#F09199"/>
<stop offset="1" stop-color="#EC8890"/>
</linearGradient>
<linearGradient id="paint12_linear_8_827" x1="789.14" y1="79.7163" x2="789.14" y2="124.569" gradientUnits="userSpaceOnUse">
<stop stop-color="#F09199"/>
<stop offset="1" stop-color="#EC8890"/>
</linearGradient>
<linearGradient id="paint13_linear_8_827" x1="829.77" y1="79.7046" x2="829.77" y2="123.705" gradientUnits="userSpaceOnUse">
<stop stop-color="#F09199"/>
<stop offset="1" stop-color="#EC8890"/>
</linearGradient>
</defs>
</svg>
